<svg xmlns="http://www.w3.org/2000/svg" xmlns:xlink="http://www.w3.org/1999/xlink" height="100px" width="100px" fill="#1e3799" x="0px" y="0px" viewBox="0 0 64 64" xml:space="preserve"><g><path d="M47.006,34.512V12.534c0-0.031-0.015-0.057-0.018-0.087v-0.912c0-1.654-1.346-3-3-3h-23.99c-1.654,0-3,1.346-3,3v2   c0,0.031,0.015,0.057,0.018,0.087v20.89c0,0.553,0.447,1,1,1h27.99C46.559,35.512,47.006,35.064,47.006,34.512z M19.998,10.535   h23.99c0.552,0,0.999,0.447,1,0.999h-25.99C18.999,10.982,19.446,10.535,19.998,10.535z M19.016,33.512V13.534h25.973v0.001   c0,0.031,0.015,0.057,0.018,0.087v19.89H19.016z"></path><path d="M41.996,15.512H21.998c-0.553,0-1,0.447-1,1v8.001c0,0.553,0.447,1,1,1h19.998c0.553,0,1-0.447,1-1v-8.001   C42.996,15.959,42.549,15.512,41.996,15.512z M40.996,23.513H22.998v-6.001h17.998V23.513z"></path><path d="M41.996,26.513H21.998c-0.553,0-1,0.447-1,1s0.447,1,1,1h19.998c0.553,0,1-0.447,1-1S42.549,26.513,41.996,26.513z"></path><path d="M41.996,29.513H21.998c-0.553,0-1,0.447-1,1s0.447,1,1,1h19.998c0.553,0,1-0.447,1-1S42.549,29.513,41.996,29.513z"></path><path d="M25.998,21.512h11.998c0.553,0,1-0.447,1-1s-0.447-1-1-1H25.998c-0.553,0-1,0.447-1,1S25.445,21.512,25.998,21.512z"></path><path d="M32.011,36.502L32.011,36.502c-0.553,0-1,0.447-1.001,0.999l-0.006,5.59l-0.294-0.296c-0.39-0.392-1.022-0.395-1.414-0.002   c-0.391,0.39-0.393,1.022-0.002,1.414l1.992,2c0.195,0.196,0.451,0.294,0.708,0.294c0.001,0,0.002-0.001,0.004-0.001   c0.001,0,0.002,0.001,0.003,0.001h0.001c0.067,0,0.126-0.025,0.189-0.038c0.061-0.013,0.123-0.013,0.182-0.037   c0.135-0.054,0.253-0.137,0.352-0.241l1.983-1.976c0.391-0.39,0.393-1.022,0.002-1.414c-0.39-0.392-1.022-0.395-1.414-0.002   l-0.292,0.29l0.006-5.58C33.011,36.95,32.563,36.503,32.011,36.502z"></path><path d="M36,7.501c0.553,0,1-0.447,1-1V2.502c0-0.347-0.18-0.669-0.475-0.851c-0.295-0.184-0.665-0.198-0.973-0.044l-1.354,0.678   l-1.488-1.49c-0.188-0.188-0.442-0.294-0.708-0.294c-0.003,0-0.005,0-0.008,0c-0.269,0.002-0.524,0.112-0.711,0.305L29.85,2.287   l-1.411-0.685c-0.31-0.15-0.676-0.133-0.967,0.052c-0.292,0.183-0.47,0.503-0.47,0.848v3.999c0,0.553,0.447,1,1,1H36z    M29.002,4.099l0.626,0.304c0.388,0.187,0.853,0.106,1.155-0.204l1.229-1.271l1.279,1.281c0.305,0.305,0.771,0.381,1.155,0.188   L35,4.121v1.38h-5.998V4.099z"></path><path d="M16.721,36.793c-0.391-0.391-1.023-0.391-1.414,0l-4.303,4.303V40.5c0-0.553-0.447-1-1-1s-1,0.447-1,1v3.01   c0,0.13,0.026,0.26,0.077,0.382c0.102,0.245,0.296,0.439,0.541,0.541c0.122,0.051,0.252,0.077,0.382,0.077h3.006   c0.553,0,1-0.447,1-1s-0.447-1-1-1h-0.592l4.303-4.303C17.111,37.816,17.111,37.184,16.721,36.793z"></path><path d="M51.004,43.51c0,0.553,0.447,1,1,1h3.004c0.13,0,0.26-0.026,0.382-0.077c0.245-0.102,0.439-0.296,0.541-0.541   c0.051-0.122,0.077-0.252,0.077-0.382V40.5c0-0.553-0.447-1-1-1s-1,0.447-1,1v0.596l-4.303-4.303c-0.391-0.391-1.023-0.391-1.414,0   s-0.391,1.023,0,1.414l4.303,4.303h-0.59C51.451,42.51,51.004,42.957,51.004,43.51z"></path><path d="M0.016,61.498c0,0.553,0.447,1,1,1h17.982c0.553,0,1-0.447,1-1V50.531c0-0.031-0.015-0.057-0.018-0.087v-0.912   c0-1.654-1.346-3-3-3H2.998c-1.654,0-3,1.346-3,3v2c0,0.031,0.015,0.057,0.018,0.087V61.498z M2.998,48.532H16.98   c0.552,0,0.999,0.448,1,0.999H1.998C1.999,48.98,2.446,48.532,2.998,48.532z M2.016,60.498v-8.967H17.98v0.001   c0,0.031,0.015,0.057,0.018,0.087v8.879H2.016z"></path><path d="M42.002,62.499V51.532c0-0.031-0.015-0.057-0.018-0.087v-0.912c0-1.654-1.346-3-3-3h-13.98c-1.654,0-3,1.346-3,3v2   c0,0.031,0.015,0.057,0.018,0.087v9.879c0,0.553,0.447,1,1,1h17.98C41.555,63.499,42.002,63.052,42.002,62.499z M25.004,49.533   h13.98c0.552,0,0.999,0.447,1,0.999h-15.98C24.005,49.98,24.452,49.533,25.004,49.533z M24.021,61.499v-8.967h15.963v0.001   c0,0.031,0.015,0.057,0.018,0.087v8.879H24.021z"></path><path d="M63.984,49.532c0-1.654-1.346-3-3-3H47.002c-1.654,0-3,1.346-3,3v2c0,0.031,0.015,0.057,0.018,0.087v9.879   c0,0.553,0.447,1,1,1h17.982c0.553,0,1-0.447,1-1V50.531c0-0.031-0.015-0.057-0.018-0.087V49.532z M47.002,48.532h13.982   c0.552,0,0.999,0.448,1,0.999H46.002C46.003,48.98,46.45,48.532,47.002,48.532z M46.02,60.498v-8.967h15.965v0.001   c0,0.031,0.015,0.057,0.018,0.087v8.879H46.02z"></path><path d="M15.002,53.5h-10c-0.553,0-1,0.447-1,1s0.447,1,1,1h10c0.553,0,1-0.447,1-1S15.555,53.5,15.002,53.5z"></path><path d="M15.002,56.499h-10c-0.553,0-1,0.447-1,1s0.447,1,1,1h10c0.553,0,1-0.447,1-1S15.555,56.499,15.002,56.499z"></path><path d="M59,53.5H49c-0.553,0-1,0.447-1,1s0.447,1,1,1h10c0.553,0,1-0.447,1-1S59.553,53.5,59,53.5z"></path><path d="M59,56.499H49c-0.553,0-1,0.447-1,1s0.447,1,1,1h10c0.553,0,1-0.447,1-1S59.553,56.499,59,56.499z"></path><path d="M36.994,54.516h-10c-0.553,0-1,0.447-1,1s0.447,1,1,1h10c0.553,0,1-0.447,1-1S37.547,54.516,36.994,54.516z"></path><path d="M36.994,57.515h-10c-0.553,0-1,0.447-1,1s0.447,1,1,1h10c0.553,0,1-0.447,1-1S37.547,57.515,36.994,57.515z"></path></g></svg>