<svg xmlns="http://www.w3.org/2000/svg" xmlns:xlink="http://www.w3.org/1999/xlink" height="100px" width="100px" fill="#1e3799" x="0px" y="0px" viewBox="0 0 64 64" xml:space="preserve"><g><g><g><g><path d="M42.199,48H37c-0.553,0-1-0.447-1-1s0.447-1,1-1h5.199c0.553,0,1,0.447,1,1S42.752,48,42.199,48z"></path></g><g><path d="M13,55c-0.553,0-1-0.447-1-1c0-4.411,3.589-8,8-8c0.553,0,1,0.447,1,1s-0.447,1-1,1c-3.309,0-6,2.691-6,6      C14,54.553,13.553,55,13,55z"></path></g><g><path d="M25,48h-5c-0.553,0-1-0.447-1-1s0.447-1,1-1h5c0.553,0,1,0.447,1,1S25.553,48,25,48z"></path></g><g><path d="M13,56.003c-0.553,0-1-0.447-1-1v-0.858c0-0.553,0.447-1,1-1s1,0.447,1,1v0.858C14,55.556,13.553,56.003,13,56.003z"></path></g><g><path d="M25,48c-0.553,0-1-0.447-1-1v-4.348c0-0.553,0.447-1,1-1s1,0.447,1,1V47C26,47.553,25.553,48,25,48z"></path></g><g><path d="M37,48c-0.553,0-1-0.447-1-1v-4.348c0-0.553,0.447-1,1-1s1,0.447,1,1V47C38,47.553,37.553,48,37,48z"></path></g><g><path d="M31,45c-8.271,0-15-6.729-15-15c0-0.552,0.447-1,1-1s1,0.448,1,1c0,7.168,5.832,13,13,13s13-5.832,13-13      c0-0.552,0.447-1,1-1s1,0.448,1,1C46,38.271,39.271,45,31,45z"></path></g><g><path d="M17,30.977c-0.553,0-1-0.448-1-1V20c0-0.552,0.447-1,1-1s1,0.448,1,1v9.977C18,30.529,17.553,30.977,17,30.977z"></path></g><g><path d="M45,31.001c-0.553,0-1-0.448-1-1v-11c0-0.552,0.447-1,1-1s1,0.448,1,1v11C46,30.553,45.553,31.001,45,31.001z"></path></g><g><path d="M45,20c-0.553,0-1-0.448-1-1c0-2.757-2.243-5-5-5c-0.553,0-1-0.448-1-1s0.447-1,1-1c3.859,0,7,3.14,7,7      C46,19.552,45.553,20,45,20z"></path></g><g><path d="M39,14c-0.553,0-1-0.448-1-1V8c0-0.552,0.447-1,1-1s1,0.448,1,1v5C40,13.552,39.553,14,39,14z"></path></g><g><path d="M17,21c-0.553,0-1-0.448-1-1c0-7.168,5.832-13,13-13c0.553,0,1,0.448,1,1s-0.447,1-1,1c-6.065,0-11,4.935-11,11      C18,20.552,17.553,21,17,21z"></path></g><g><g><path d="M45,26c-0.256,0-0.512-0.098-0.707-0.293l-4-4c-0.391-0.391-0.391-1.023,0-1.414s1.023-0.391,1.414,0l4,4       c0.391,0.391,0.391,1.023,0,1.414C45.512,25.902,45.256,26,45,26z"></path></g><g><path d="M31,24c-5.575,0-10.206-1.999-10.401-2.084c-0.505-0.221-0.735-0.81-0.515-1.316c0.221-0.507,0.812-0.737,1.316-0.517       C21.444,20.103,25.858,22,31,22c5.159,0,9.556-1.897,9.6-1.916c0.506-0.221,1.096,0.01,1.316,0.515       c0.222,0.506-0.009,1.096-0.516,1.317C41.206,22.001,36.573,24,31,24z"></path></g><g><path d="M17,25.988c-0.257,0-0.513-0.098-0.708-0.294c-0.39-0.391-0.39-1.024,0.002-1.414l4-3.988       c0.392-0.39,1.024-0.389,1.414,0.002s0.39,1.024-0.002,1.414l-4,3.988C17.511,25.891,17.256,25.988,17,25.988z"></path></g></g><g><path d="M27.999,50c-0.19,0-0.383-0.055-0.554-0.168l-3-2c-0.46-0.307-0.584-0.927-0.277-1.387      c0.306-0.459,0.925-0.583,1.387-0.277l3,2c0.46,0.307,0.584,0.927,0.277,1.387C28.64,49.844,28.322,50,27.999,50z"></path></g><g><path d="M28,50c-0.419,0-0.809-0.265-0.948-0.684c-0.175-0.524,0.108-1.091,0.632-1.265l3-1      c0.527-0.176,1.091,0.108,1.265,0.632c0.175,0.524-0.108,1.091-0.632,1.265l-3,1C28.211,49.983,28.104,50,28,50z"></path></g><g><path d="M34.001,50c-0.323,0-0.641-0.156-0.833-0.445c-0.307-0.46-0.183-1.08,0.277-1.387l3-2      c0.46-0.306,1.081-0.182,1.387,0.277c0.307,0.46,0.183,1.08-0.277,1.387l-3,2C34.384,49.945,34.191,50,34.001,50z"></path></g><g><path d="M34,50c-0.104,0-0.211-0.017-0.316-0.052l-3-1c-0.523-0.174-0.807-0.74-0.632-1.265      c0.175-0.523,0.736-0.808,1.265-0.632l3,1c0.523,0.174,0.807,0.74,0.632,1.265C34.809,49.735,34.419,50,34,50z"></path></g><g><path d="M31.03,54c-0.553,0-1.005-0.447-1.005-1s0.442-1,0.994-1h0.011c0.552,0,1,0.447,1,1S31.582,54,31.03,54z"></path></g><g><path d="M31.03,58c-0.553,0-1.005-0.447-1.005-1s0.442-1,0.994-1h0.011c0.552,0,1,0.447,1,1S31.582,58,31.03,58z"></path></g><g><path d="M39,9H29c-0.553,0-1-0.448-1-1s0.447-1,1-1h10c0.553,0,1,0.448,1,1S39.553,9,39,9z"></path></g></g><g><path d="M31,62C13.906,62,0,48.094,0,31C0,13.907,13.906,0,31,0c17.092,0,30.998,13.906,31,31c0,4.348-0.884,8.556-2.626,12.505     c-0.223,0.506-0.813,0.735-1.318,0.512c-0.506-0.223-0.734-0.813-0.512-1.318C59.174,39.004,60,35.068,60,31     C59.998,15.009,46.989,2,31,2C15.01,2,2,15.009,2,31c0,15.99,13.01,29,29,29c4.068,0,8.003-0.825,11.694-2.454     c0.506-0.221,1.096,0.007,1.318,0.512s-0.006,1.096-0.512,1.318C39.555,61.117,35.349,62,31,62z"></path></g><g><path d="M52,64.001c-3.205,0-6.219-1.248-8.484-3.515C41.248,58.22,40,55.206,40,52c0-3.205,1.249-6.219,3.516-8.484     C45.781,41.249,48.795,40,52,40s6.219,1.249,8.484,3.516C62.751,45.781,64,48.795,64,52c0,3.206-1.248,6.22-3.516,8.486     C58.219,62.753,55.205,64.001,52,64.001z M52,42c-2.671,0-5.182,1.04-7.07,2.93C43.04,46.818,42,49.329,42,52     s1.04,5.183,2.93,7.072c1.889,1.889,4.399,2.929,7.07,2.929s5.182-1.04,7.07-2.929C60.96,57.183,62,54.671,62,52     s-1.04-5.182-2.93-7.07C57.182,43.04,54.671,42,52,42z"></path></g><g><path d="M57,53H47c-0.553,0-1-0.447-1-1s0.447-1,1-1h10c0.553,0,1,0.447,1,1S57.553,53,57,53z"></path></g><g><path d="M52,58c-0.553,0-1-0.447-1-1V47c0-0.553,0.447-1,1-1s1,0.447,1,1v10C53,57.553,52.553,58,52,58z"></path></g></g></g></svg>