<svg xmlns="http://www.w3.org/2000/svg" xmlns:xlink="http://www.w3.org/1999/xlink" height="100px" width="100px" fill="#1e3799" x="0px" y="0px" viewBox="0 0 64 64" xml:space="preserve"><g><g><g><path d="M7.5,4.001c-0.553,0-1-0.447-1-1c0-1.654,1.346-3,3-3c0.553,0,1,0.447,1,1s-0.447,1-1,1c-0.552,0-1,0.448-1,1     C8.5,3.554,8.053,4.001,7.5,4.001z"></path></g><g><path d="M56.5,4.001c-0.553,0-1-0.447-1-1c0-0.552-0.448-1-1-1c-0.553,0-1-0.447-1-1s0.447-1,1-1c1.654,0,3,1.346,3,3     C57.5,3.554,57.053,4.001,56.5,4.001z"></path></g><g><path d="M54.5,2.001h-45c-0.553,0-1-0.447-1-1s0.447-1,1-1h45c0.553,0,1,0.447,1,1S55.053,2.001,54.5,2.001z"></path></g><g><path d="M56.5,6.001c-0.553,0-1-0.447-1-1v-2c0-0.553,0.447-1,1-1s1,0.447,1,1v2C57.5,5.554,57.053,6.001,56.5,6.001z"></path></g><g><path d="M7.5,6.001c-0.553,0-1-0.447-1-1v-2c0-0.553,0.447-1,1-1s1,0.447,1,1v2C8.5,5.554,8.053,6.001,7.5,6.001z"></path></g><g><path d="M56.5,6.001h-49c-0.553,0-1-0.447-1-1s0.447-1,1-1h49c0.553,0,1,0.447,1,1S57.053,6.001,56.5,6.001z"></path></g><g><path d="M10.53,4.001c-0.553,0-1.005-0.447-1.005-1s0.442-1,0.994-1h0.011c0.552,0,1,0.447,1,1S11.082,4.001,10.53,4.001z"></path></g><g><path d="M13.53,4.001c-0.553,0-1.005-0.447-1.005-1s0.442-1,0.994-1h0.011c0.552,0,1,0.447,1,1S14.082,4.001,13.53,4.001z"></path></g><g><path d="M16.532,4.001c-0.553,0-1.005-0.447-1.005-1s0.442-1,0.994-1h0.011c0.552,0,1,0.447,1,1S17.084,4.001,16.532,4.001z"></path></g><g><path d="M7.5,63.999c-0.553,0-1-0.447-1-1V5.001c0-0.553,0.447-1,1-1s1,0.447,1,1v57.998C8.5,63.552,8.053,63.999,7.5,63.999z"></path></g><g><path d="M56.5,63.999c-0.553,0-1-0.447-1-1V5.001c0-0.553,0.447-1,1-1s1,0.447,1,1v57.998C57.5,63.552,57.053,63.999,56.5,63.999     z"></path></g><g><path d="M56.5,63.999h-49c-0.553,0-1-0.447-1-1s0.447-1,1-1h49c0.553,0,1,0.447,1,1S57.053,63.999,56.5,63.999z"></path></g><g><path d="M27.5,29.009h-15c-0.553,0-1-0.447-1-1V14.007c0-0.553,0.447-1,1-1h15c0.553,0,1,0.447,1,1v14.002     C28.5,28.562,28.053,29.009,27.5,29.009z M13.5,27.009h13V15.007h-13V27.009z"></path></g><g><path d="M23.5,29.009c-0.553,0-1-0.447-1-1V12.005c0-0.553,0.447-1,1-1s1,0.447,1,1v16.004     C24.5,28.562,24.053,29.009,23.5,29.009z"></path></g><g><path d="M19.5,13.005c-0.553,0-1-0.447-1-1c0-0.552-0.448-1-1-1s-1,0.448-1,1c0,0.553-0.447,1-1,1s-1-0.447-1-1     c0-1.654,1.346-3,3-3s3,1.346,3,3C20.5,12.558,20.053,13.005,19.5,13.005z"></path></g><g><path d="M15.5,16.005c-0.553,0-1-0.447-1-1v-3c0-0.553,0.447-1,1-1s1,0.447,1,1v3C16.5,15.558,16.053,16.005,15.5,16.005z"></path></g><g><path d="M19.5,16.005c-0.553,0-1-0.447-1-1v-3c0-0.553,0.447-1,1-1s1,0.447,1,1v3C20.5,15.558,20.053,16.005,19.5,16.005z"></path></g><g><path d="M23.5,13.005c-0.553,0-1-0.447-1-1c0-0.552-0.448-1-1-1s-1,0.448-1,1c0,0.553-0.447,1-1,1s-1-0.447-1-1     c0-1.654,1.346-3,3-3s3,1.346,3,3C24.5,12.558,24.053,13.005,23.5,13.005z"></path></g><g><path d="M51.5,16.008H32.498c-0.553,0-1-0.447-1-1s0.447-1,1-1H51.5c0.553,0,1,0.447,1,1S52.053,16.008,51.5,16.008z"></path></g><g><path d="M51.5,20.006H32.498c-0.553,0-1-0.447-1-1s0.447-1,1-1H51.5c0.553,0,1,0.447,1,1S52.053,20.006,51.5,20.006z"></path></g><g><path d="M51.508,24.006h-19.01c-0.553,0-1-0.447-1-1s0.447-1,1-1h19.01c0.553,0,1,0.447,1,1S52.061,24.006,51.508,24.006z"></path></g><g><path d="M13.5,45.002c-0.553,0-1-0.447-1-1v-4c0-0.553,0.447-1,1-1s1,0.447,1,1v4C14.5,44.555,14.053,45.002,13.5,45.002z"></path></g><g><path d="M20.5,45.002c-0.553,0-1-0.447-1-1v-4c0-0.553,0.447-1,1-1s1,0.447,1,1v4C21.5,44.555,21.053,45.002,20.5,45.002z"></path></g><g><path d="M20.5,45.002h-7c-0.553,0-1-0.447-1-1s0.447-1,1-1h7c0.553,0,1,0.447,1,1S21.053,45.002,20.5,45.002z"></path></g><g><path d="M21.5,41.002h-9c-0.553,0-1-0.447-1-1s0.447-1,1-1h9c0.553,0,1,0.447,1,1S22.053,41.002,21.5,41.002z"></path></g><g><path d="M21.5,41.002c-0.419,0-0.809-0.265-0.948-0.684l-1-3c-0.175-0.524,0.108-1.091,0.632-1.265     c0.529-0.177,1.09,0.108,1.265,0.632l1,3c0.175,0.524-0.108,1.091-0.632,1.265C21.711,40.985,21.604,41.002,21.5,41.002z"></path></g><g><path d="M12.5,41.002c-0.104,0-0.211-0.017-0.316-0.052c-0.523-0.174-0.807-0.74-0.632-1.265l1-3     c0.175-0.523,0.737-0.809,1.265-0.632c0.523,0.174,0.807,0.74,0.632,1.265l-1,3C13.309,40.737,12.919,41.002,12.5,41.002z"></path></g><g><path d="M20.5,38.002h-7c-0.553,0-1-0.447-1-1s0.447-1,1-1h7c0.553,0,1,0.447,1,1S21.053,38.002,20.5,38.002z"></path></g><g><path d="M44.506,42.002h-3.994c-0.553,0-1-0.447-1-1s0.447-1,1-1h3.994c0.553,0,1,0.447,1,1S45.059,42.002,44.506,42.002z"></path></g><g><path d="M29.5,43.001h-3.998c-0.553,0-1-0.447-1-1s0.447-1,1-1H29.5c0.553,0,1,0.447,1,1S30.053,43.001,29.5,43.001z"></path></g><g><path d="M33.5,39.999h-7.998c-0.553,0-1-0.447-1-1s0.447-1,1-1H33.5c0.553,0,1,0.447,1,1S34.053,39.999,33.5,39.999z"></path></g><g><path d="M29.5,58.002h-3.998c-0.553,0-1-0.447-1-1s0.447-1,1-1H29.5c0.553,0,1,0.447,1,1S30.053,58.002,29.5,58.002z"></path></g><g><path d="M33.5,55h-7.998c-0.553,0-1-0.447-1-1s0.447-1,1-1H33.5c0.553,0,1,0.447,1,1S34.053,55,33.5,55z"></path></g><g><path d="M51.5,33.999h-39c-0.553,0-1-0.447-1-1s0.447-1,1-1h39c0.553,0,1,0.447,1,1S52.053,33.999,51.5,33.999z"></path></g><g><path d="M51.5,49h-39c-0.553,0-1-0.447-1-1s0.447-1,1-1h39c0.553,0,1,0.447,1,1S52.053,49,51.5,49z"></path></g><g><path d="M50.51,40.002h-2c-0.553,0-1-0.447-1-1s0.447-1,1-1h2c0.553,0,1,0.447,1,1S51.063,40.002,50.51,40.002z"></path></g><g><path d="M50.511,43.002c-0.323,0-0.641-0.156-0.833-0.445l-2-3c-0.307-0.46-0.183-1.08,0.277-1.387     c0.461-0.306,1.081-0.183,1.387,0.277l2,3c0.307,0.46,0.183,1.08-0.277,1.387C50.894,42.947,50.701,43.002,50.511,43.002z"></path></g><g><path d="M50.51,43.002h-2c-0.553,0-1-0.447-1-1s0.447-1,1-1h2c0.553,0,1,0.447,1,1S51.063,43.002,50.51,43.002z"></path></g><g><path d="M13.5,59.999c-0.553,0-1-0.447-1-1v-4c0-0.553,0.447-1,1-1s1,0.447,1,1v4C14.5,59.552,14.053,59.999,13.5,59.999z"></path></g><g><path d="M20.5,59.999c-0.553,0-1-0.447-1-1v-4c0-0.553,0.447-1,1-1s1,0.447,1,1v4C21.5,59.552,21.053,59.999,20.5,59.999z"></path></g><g><path d="M20.5,59.999h-7c-0.553,0-1-0.447-1-1s0.447-1,1-1h7c0.553,0,1,0.447,1,1S21.053,59.999,20.5,59.999z"></path></g><g><path d="M21.5,55.999h-9c-0.553,0-1-0.447-1-1s0.447-1,1-1h9c0.553,0,1,0.447,1,1S22.053,55.999,21.5,55.999z"></path></g><g><path d="M21.5,55.999c-0.419,0-0.809-0.265-0.948-0.684l-1-3c-0.175-0.524,0.108-1.091,0.632-1.265     c0.529-0.176,1.09,0.108,1.265,0.632l1,3c0.175,0.524-0.108,1.091-0.632,1.265C21.711,55.982,21.604,55.999,21.5,55.999z"></path></g><g><path d="M12.5,55.999c-0.104,0-0.211-0.017-0.316-0.052c-0.523-0.174-0.807-0.74-0.632-1.265l1-3     c0.175-0.523,0.737-0.808,1.265-0.632c0.523,0.174,0.807,0.74,0.632,1.265l-1,3C13.309,55.734,12.919,55.999,12.5,55.999z"></path></g><g><path d="M20.5,52.999h-7c-0.553,0-1-0.447-1-1s0.447-1,1-1h7c0.553,0,1,0.447,1,1S21.053,52.999,20.5,52.999z"></path></g><g><path d="M44.506,56.999h-3.994c-0.553,0-1-0.447-1-1s0.447-1,1-1h3.994c0.553,0,1,0.447,1,1S45.059,56.999,44.506,56.999z"></path></g><g><path d="M50.51,54.999h-2c-0.553,0-1-0.447-1-1s0.447-1,1-1h2c0.553,0,1,0.447,1,1S51.063,54.999,50.51,54.999z"></path></g><g><path d="M50.511,57.999c-0.323,0-0.641-0.156-0.833-0.445l-2-3c-0.307-0.46-0.183-1.08,0.277-1.387     c0.461-0.307,1.081-0.183,1.387,0.277l2,3c0.307,0.46,0.183,1.08-0.277,1.387C50.894,57.944,50.701,57.999,50.511,57.999z"></path></g><g><path d="M50.51,57.999h-2c-0.553,0-1-0.447-1-1s0.447-1,1-1h2c0.553,0,1,0.447,1,1S51.063,57.999,50.51,57.999z"></path></g><g><path d="M42.506,28H32.498c-0.553,0-1-0.447-1-1s0.447-1,1-1h10.008c0.553,0,1,0.447,1,1S43.059,28,42.506,28z"></path></g></g></g></svg>