<svg xmlns="http://www.w3.org/2000/svg" xmlns:xlink="http://www.w3.org/1999/xlink" height="100px" width="100px" fill="#1e3799" x="0px" y="0px" viewBox="0 0 512 512" xml:space="preserve"><g><path d="M405.328,10.66H106.656L0,117.332v75.328v308.68h512V207.23v-89.898L405.328,10.66z M396.484,31.996l85.344,85.336H316.438   l-14.219-85.336H396.484z M213.328,138.66h85.328v61.484l0,0l-11.797-5.898l-9.531-4.766l-9.547,4.766L256,200.145l-11.797-5.898   l-9.547-4.766l-9.531,4.766l-11.797,5.898V138.66z M280.594,31.996l14.219,85.336h-77.641l14.219-85.336H280.594z M115.5,31.996   h94.266l-14.219,85.336H30.156L115.5,31.996z M490.656,479.996H21.328V138.66H192v74.672l21.328,10.664l21.328-10.664L256,223.996   l21.328-10.664l21.328,10.664L320,213.332V138.66h170.656V479.996z"></path><path d="M160,394.652H53.328c-5.891,0-10.672,4.781-10.672,10.688c0,5.875,4.781,10.656,10.672,10.656H160   c5.875,0,10.656-4.781,10.656-10.656C170.656,399.434,165.875,394.652,160,394.652z"></path><path d="M106.656,437.34H53.328c-5.891,0-10.672,4.766-10.672,10.656s4.781,10.656,10.672,10.656h53.328   c5.891,0,10.672-4.766,10.672-10.656S112.547,437.34,106.656,437.34z"></path></g></svg>