<svg xmlns="http://www.w3.org/2000/svg" xmlns:xlink="http://www.w3.org/1999/xlink" height="100px" width="100px" fill="#1e3799" x="0px" y="0px" viewBox="0 0 64 64" xml:space="preserve"><g><g><g><g><g><path d="M1.5,53.001c-0.553,0-1-0.447-1-1c0-4.963,4.037-9,9-9c0.553,0,1,0.447,1,1s-0.447,1-1,1c-3.859,0-7,3.141-7,7       C2.5,52.554,2.053,53.001,1.5,53.001z"></path></g><g><path d="M38.498,45.582c-0.125,0-0.252-0.023-0.375-0.073c-0.831-0.336-1.713-0.507-2.623-0.507c-0.553,0-1-0.447-1-1       s0.447-1,1-1c1.168,0,2.304,0.22,3.373,0.653c0.513,0.207,0.759,0.79,0.552,1.302C39.268,45.347,38.893,45.582,38.498,45.582z"></path></g><g><path d="M15.5,45.002L15.5,45.002l-6-0.001c-0.553,0-1-0.448-1-1c0-0.553,0.448-1,1-1l0,0l6,0.001c0.553,0,1,0.448,1,1       C16.5,44.555,16.052,45.002,15.5,45.002z"></path></g><g><path d="M35.5,45.002L35.5,45.002L29.5,45c-0.553,0-1-0.448-1-1c0-0.553,0.448-1,1-1l0,0l6,0.002c0.553,0,1,0.448,1,1       C36.5,44.555,36.052,45.002,35.5,45.002z"></path></g><g><path d="M1.501,60c-0.552,0-1-0.447-1-1L0.5,52.001c0-0.552,0.447-1,1-1c0.552,0,1,0.447,1,1L2.501,59       C2.501,59.552,2.054,60,1.501,60z"></path></g><g><path d="M2.501,61c-1.103,0-2-0.897-2-2c0-0.553,0.447-1,1-1s1,0.447,1,1v0.002c0.553,0,1,0.446,1,0.999       C3.501,60.553,3.054,61,2.501,61z"></path></g><g><path d="M43.171,61H2.501c-0.553,0-1-0.447-1-1s0.447-1,1-1h40.67c0.553,0,1,0.447,1,1S43.724,61,43.171,61z"></path></g></g><g><path d="M15.5,45.002c-0.553,0-1-0.447-1-1v-5.731c0-0.553,0.447-1,1-1s1,0.447,1,1v5.731      C16.5,44.555,16.053,45.002,15.5,45.002z"></path></g><g><path d="M29.5,45c-0.553,0-1-0.447-1-1v-5.729c0-0.553,0.447-1,1-1s1,0.447,1,1V44C30.5,44.553,30.053,45,29.5,45z"></path></g><g><path d="M22.5,41.001c-8.822,0-16-7.178-16-16c0-0.553,0.447-1,1-1s1,0.447,1,1c0,7.72,6.28,14,14,14s14-6.28,14-14      c0-0.553,0.447-1,1-1s1,0.447,1,1C38.5,33.823,31.322,41.001,22.5,41.001z"></path></g><g><path d="M7.5,26.001c-0.553,0-1-0.447-1-1V14c0-0.553,0.447-1,1-1s1,0.447,1,1v11.001C8.5,25.554,8.053,26.001,7.5,26.001z"></path></g><g><path d="M37.5,26.001c-0.553,0-1-0.447-1-1V13.002c0-0.553,0.447-1,1-1s1,0.447,1,1v11.999      C38.5,25.554,38.053,26.001,37.5,26.001z"></path></g><g><path d="M37.5,14.002c-0.553,0-1-0.447-1-1c0-3.309-2.691-6-6-6c-0.553,0-1-0.447-1-1s0.447-1,1-1c4.411,0,8,3.589,8,8      C38.5,13.555,38.053,14.002,37.5,14.002z"></path></g><g><path d="M30.5,7.002c-0.553,0-1-0.447-1-1V1c0-0.553,0.447-1,1-1s1,0.447,1,1v5.002C31.5,6.555,31.053,7.002,30.5,7.002z"></path></g><g><path d="M30.5,2h-10c-0.553,0-1-0.447-1-1s0.447-1,1-1h10c0.553,0,1,0.447,1,1S31.053,2,30.5,2z"></path></g><g><path d="M7.5,15c-0.553,0-1-0.447-1-1c0-7.72,6.28-14,14-14c0.553,0,1,0.447,1,1s-0.447,1-1,1c-6.617,0-12,5.383-12,12      C8.5,14.553,8.053,15,7.5,15z"></path></g><g><g><path d="M37.5,20c-0.256,0-0.512-0.098-0.707-0.293l-4-4c-0.391-0.391-0.391-1.023,0-1.414s1.023-0.391,1.414,0l4,4       c0.391,0.391,0.391,1.023,0,1.414C38.012,19.902,37.756,20,37.5,20z"></path></g><g><path d="M22.5,19c-6.206,0-11.301-3.015-11.515-3.143c-0.473-0.284-0.626-0.897-0.343-1.371       c0.283-0.473,0.894-0.628,1.371-0.345C12.062,14.171,16.864,17,22.5,17s10.438-2.829,10.486-2.858       c0.478-0.283,1.088-0.128,1.371,0.345c0.283,0.474,0.13,1.087-0.343,1.371C33.801,15.985,28.706,19,22.5,19z"></path></g><g><path d="M7.5,20c-0.256,0-0.512-0.098-0.707-0.293c-0.391-0.391-0.391-1.023,0-1.414l4-4c0.391-0.391,1.023-0.391,1.414,0       s0.391,1.023,0,1.414l-4,4C8.012,19.902,7.756,20,7.5,20z"></path></g></g><g><path d="M18.499,47c-0.19,0-0.383-0.055-0.554-0.168l-3-1.998c-0.459-0.306-0.584-0.927-0.277-1.387      c0.306-0.46,0.925-0.584,1.387-0.277l3,1.998c0.459,0.306,0.584,0.927,0.277,1.387C19.14,46.844,18.822,47,18.499,47z"></path></g><g><path d="M18.501,47c-0.367,0-0.72-0.202-0.896-0.553c-0.247-0.494-0.047-1.095,0.447-1.342l4-2      c0.494-0.245,1.094-0.047,1.342,0.447c0.247,0.494,0.047,1.095-0.447,1.342l-4,2C18.804,46.966,18.651,47,18.501,47z"></path></g><g><path d="M26.501,47c-0.323,0-0.641-0.156-0.833-0.445c-0.307-0.46-0.182-1.081,0.277-1.387l3-1.998      c0.461-0.307,1.08-0.183,1.387,0.277s0.182,1.081-0.277,1.387l-3,1.998C26.884,46.945,26.691,47,26.501,47z"></path></g><g><path d="M26.499,47c-0.15,0-0.303-0.034-0.446-0.105l-4-2c-0.494-0.247-0.694-0.848-0.447-1.342s0.848-0.692,1.342-0.447l4,2      c0.494,0.247,0.694,0.848,0.447,1.342C27.219,46.798,26.866,47,26.499,47z"></path></g><g><path d="M22.53,51c-0.553,0-1.005-0.447-1.005-1s0.442-1,0.994-1h0.011c0.552,0,1,0.447,1,1S23.082,51,22.53,51z"></path></g><g><path d="M22.53,56c-0.553,0-1.005-0.447-1.005-1s0.442-1,0.994-1h0.011c0.552,0,1,0.447,1,1S23.082,56,22.53,56z"></path></g></g><g><path d="M46.5,37c-0.553,0-1-0.447-1-1s0.447-1,1-1c1.654,0,3-1.346,3-3c0-0.553,0.447-1,1-1s1,0.447,1,1     C51.5,34.757,49.257,37,46.5,37z"></path></g><g><path d="M54.5,37c-2.757,0-5-2.243-5-5c0-0.553,0.447-1,1-1s1,0.447,1,1c0,1.654,1.346,3,3,3c0.553,0,1,0.447,1,1     S55.053,37,54.5,37z"></path></g><g><path d="M40.5,37c-1.654,0-3-1.346-3-3c0-0.553,0.447-1,1-1s1,0.447,1,1c0,0.552,0.448,1,1,1c0.553,0,1,0.447,1,1     S41.053,37,40.5,37z"></path></g><g><path d="M46.5,37h-6c-0.553,0-1-0.447-1-1s0.447-1,1-1h6c0.553,0,1,0.447,1,1S47.053,37,46.5,37z"></path></g><g><path d="M38.5,52c-0.553,0-1-0.447-1-1V34c0-0.553,0.447-1,1-1s1,0.447,1,1v17C39.5,51.553,39.053,52,38.5,52z"></path></g><g><path d="M60.5,37c-0.553,0-1-0.447-1-1s0.447-1,1-1c0.552,0,1-0.448,1-1c0-0.553,0.447-1,1-1s1,0.447,1,1     C63.5,35.654,62.154,37,60.5,37z"></path></g><g><path d="M60.5,37h-6c-0.553,0-1-0.447-1-1s0.447-1,1-1h6c0.553,0,1,0.447,1,1S61.053,37,60.5,37z"></path></g><g><path d="M62.5,52c-0.553,0-1-0.447-1-1V34c0-0.553,0.447-1,1-1s1,0.447,1,1v17C63.5,51.553,63.053,52,62.5,52z"></path></g><g><path d="M49.5,63c-6.617,0-12-5.383-12-12c0-0.553,0.447-1,1-1s1,0.447,1,1c0,5.514,4.486,10,10,10c0.553,0,1,0.447,1,1     S50.053,63,49.5,63z"></path></g><g><path d="M50.5,64c-0.553,0-1-0.447-1-1v-0.002c-0.553,0-1-0.446-1-0.999c0-0.552,0.447-0.999,1-0.999c1.103,0,2,0.897,2,2     C51.5,63.553,51.053,64,50.5,64z"></path></g><g><path d="M51.5,63c-0.553,0-1-0.447-1-1s0.447-1,1-1c5.514,0,10-4.486,10-10c0-0.553,0.447-1,1-1s1,0.447,1,1     C63.5,57.617,58.117,63,51.5,63z"></path></g><g><path d="M50.5,64c-0.553,0-1-0.447-1-1c0-1.103,0.897-2,2-2c0.553,0,1,0.447,1,1s-0.447,1-1,1C51.5,63.553,51.053,64,50.5,64z"></path></g><g><path d="M50.5,56c-0.553,0-1-0.447-1-1V43c0-0.553,0.447-1,1-1s1,0.447,1,1v12C51.5,55.553,51.053,56,50.5,56z"></path></g></g></g></svg>