<svg xmlns="http://www.w3.org/2000/svg" xmlns:xlink="http://www.w3.org/1999/xlink" height="100px" width="100px" fill="#1e3799" x="0px" y="0px" viewBox="0 0 64 64" xml:space="preserve"><g><g><g><path d="M30,18c-0.553,0-1-0.447-1-1c0-6.065-4.935-11-11-11S7,10.935,7,17c0,0.553-0.447,1-1,1s-1-0.447-1-1     C5,9.832,10.832,4,18,4s13,5.832,13,13C31,17.553,30.553,18,30,18z"></path></g><g><path d="M6,29c-0.553,0-1-0.447-1-1V17c0-0.553,0.447-1,1-1s1,0.447,1,1v11C7,28.553,6.553,29,6,29z"></path></g><g><path d="M30,29c-0.553,0-1-0.447-1-1V17c0-0.553,0.447-1,1-1s1,0.447,1,1v11C31,28.553,30.553,29,30,29z"></path></g><g><path d="M31,33H5c-0.553,0-1-0.447-1-1v-4c0-0.553,0.447-1,1-1h26c0.553,0,1,0.447,1,1v4C32,32.553,31.553,33,31,33z M6,31h24v-2     H6V31z"></path></g><g><path d="M18,37c-2.757,0-5-2.243-5-5c0-0.553,0.447-1,1-1s1,0.447,1,1c0,1.654,1.346,3,3,3s3-1.346,3-3c0-0.553,0.447-1,1-1     s1,0.447,1,1C23,34.757,20.757,37,18,37z"></path></g><g><path d="M20,4c-0.553,0-1-0.447-1-1c0-0.552-0.448-1-1-1s-1,0.448-1,1c0,0.553-0.447,1-1,1s-1-0.447-1-1c0-1.654,1.346-3,3-3     s3,1.346,3,3C21,3.553,20.553,4,20,4z"></path></g><g><path d="M16,6.166c-0.553,0-1-0.447-1-1V3c0-0.553,0.447-1,1-1s1,0.447,1,1v2.166C17,5.719,16.553,6.166,16,6.166z"></path></g><g><path d="M20,6.166c-0.553,0-1-0.447-1-1V3c0-0.553,0.447-1,1-1s1,0.447,1,1v2.166C21,5.719,20.553,6.166,20,6.166z"></path></g><g><g><path d="M41.03,63c-0.553,0-1.005-0.447-1.005-1s0.442-1,0.994-1h0.011c0.552,0,1,0.447,1,1S41.582,63,41.03,63z"></path></g><g><path d="M44,24.5c-0.553,0-1-0.447-1-1c0-0.827-0.673-1.5-1.5-1.5S40,22.673,40,23.5c0,0.553-0.447,1-1,1s-1-0.447-1-1      c0-1.93,1.57-3.5,3.5-3.5s3.5,1.57,3.5,3.5C45,24.053,44.553,24.5,44,24.5z"></path></g><g><path d="M48.999,36.499c-0.553,0-1-0.447-1-1c0-0.826-0.673-1.499-1.5-1.499C45.673,34,45,34.673,45,35.499c0,0.553-0.447,1-1,1      s-1-0.447-1-1C43,33.569,44.569,32,46.499,32s3.5,1.569,3.5,3.499C49.999,36.052,49.552,36.499,48.999,36.499z"></path></g><g><path d="M53.999,37.499c-0.553,0-1-0.447-1-1c0-0.826-0.673-1.499-1.499-1.499c-0.827,0-1.5,0.673-1.5,1.499      c0,0.553-0.447,1-1,1s-1-0.447-1-1C48,34.569,49.57,33,51.5,33s3.499,1.569,3.499,3.499      C54.999,37.052,54.552,37.499,53.999,37.499z"></path></g><g><path d="M58.998,38.499c-0.553,0-1-0.447-1-1c0-0.826-0.673-1.499-1.499-1.499S55,36.673,55,37.499c0,0.553-0.447,1-1,1      s-1-0.447-1-1C53,35.569,54.569,34,56.499,34s3.499,1.569,3.499,3.499C59.998,38.052,59.551,38.499,58.998,38.499z"></path></g><g><path d="M44,39c-0.553,0-1-0.447-1-1V23.5c0-0.553,0.447-1,1-1s1,0.447,1,1V38C45,38.553,44.553,39,44,39z"></path></g><g><path d="M39,45c-0.553,0-1-0.447-1-1V23.5c0-0.553,0.447-1,1-1s1,0.447,1,1V44C40,44.553,39.553,45,39,45z"></path></g><g><path d="M49,39.001c-0.553,0-1-0.447-1-1V35.5c0-0.553,0.447-1,1-1s1,0.447,1,1v2.501C50,38.554,49.553,39.001,49,39.001z"></path></g><g><path d="M54,39c-0.553,0-1-0.447-1-1v-1.501c0-0.553,0.447-1,1-1s1,0.447,1,1V38C55,38.553,54.553,39,54,39z"></path></g><g><path d="M59,55c-0.553,0-1-0.447-1-1V37.499c0-0.553,0.447-1,1-1s1,0.447,1,1V54C60,54.553,59.553,55,59,55z"></path></g><g><path d="M39,42c-0.553,0-1-0.447-1-1c0-1.654-1.346-3-3-3c-0.553,0-1-0.447-1-1s0.447-1,1-1c2.757,0,5,2.243,5,5      C40,41.553,39.553,42,39,42z"></path></g><g><path d="M35,53c-0.553,0-1-0.447-1-1V37c0-0.553,0.447-1,1-1s1,0.447,1,1v15C36,52.553,35.553,53,35,53z"></path></g><g><path d="M39.001,60c-0.348,0-0.685-0.181-0.869-0.504l-4-7c-0.274-0.479-0.107-1.09,0.372-1.364      c0.479-0.276,1.09-0.107,1.364,0.372l4,7c0.274,0.479,0.107,1.09-0.372,1.364C39.34,59.958,39.169,60,39.001,60z"></path></g><g><path d="M57,60c-0.124,0-0.25-0.022-0.371-0.071c-0.513-0.205-0.763-0.787-0.558-1.3l2-5c0.204-0.515,0.79-0.762,1.3-0.558      c0.513,0.205,0.763,0.787,0.558,1.3l-2,5C57.772,59.763,57.396,60,57,60z"></path></g><g><path d="M59,64c-0.553,0-1-0.447-1-1v-3H38v3c0,0.553-0.447,1-1,1s-1-0.447-1-1v-4c0-0.553,0.447-1,1-1h22c0.553,0,1,0.447,1,1      v4C60,63.553,59.553,64,59,64z"></path></g></g><g><path d="M18,40.996c-2.305,0-4.609-0.877-6.364-2.631c-0.391-0.391-0.391-1.023,0-1.414s1.023-0.391,1.414,0     c2.73,2.729,7.17,2.729,9.9,0c0.391-0.391,1.023-0.391,1.414,0s0.391,1.023,0,1.414C22.609,40.119,20.305,40.996,18,40.996z"></path></g><g><path d="M18,44.994c-3.329,0-6.658-1.267-9.192-3.801c-0.391-0.391-0.391-1.023,0-1.414s1.023-0.391,1.414,0     c4.289,4.287,11.268,4.287,15.557,0c0.391-0.391,1.023-0.391,1.414,0s0.391,1.023,0,1.414C24.658,43.728,21.329,44.994,18,44.994     z"></path></g></g></g></svg>