<svg xmlns="http://www.w3.org/2000/svg" xmlns:xlink="http://www.w3.org/1999/xlink" height="100px" width="100px" fill="#1e3799" x="0px" y="0px" viewBox="0 0 64 64" xml:space="preserve"><g><g><g><path d="M1,59.999c-0.553,0-1-0.447-1-1C0,55.14,3.141,52,7,52c0.553,0,1,0.447,1,1s-0.447,1-1,1c-2.757,0-5,2.242-5,4.999     C2,59.552,1.553,59.999,1,59.999z"></path></g><g><path d="M11,54.001L11,54.001L7,54c-0.553,0-1-0.448-1-1c0-0.553,0.448-1,1-1l0,0l4,0.001c0.553,0,1,0.448,1,1     C12,53.554,11.552,54.001,11,54.001z"></path></g><g><path d="M1,64c-0.553,0-1-0.447-1-1v-4.001c0-0.553,0.447-1,1-1s1,0.447,1,1V63C2,63.553,1.553,64,1,64z"></path></g><g><path d="M31,59.999c-0.553,0-1-0.447-1-1C30,56.242,27.757,54,25,54c-0.553,0-1-0.447-1-1s0.447-1,1-1c3.859,0,7,3.14,7,6.999     C32,59.552,31.553,59.999,31,59.999z"></path></g><g><path d="M21,54.001c-0.552,0-1-0.447-1-1c0-0.552,0.447-1,1-1L25,52c0.552,0,1,0.447,1,1c0,0.552-0.447,1-1,1L21,54.001z"></path></g><g><path d="M31,64c-0.553,0-1-0.447-1-1v-4.001c0-0.553,0.447-1,1-1s1,0.447,1,1V63C32,63.553,31.553,64,31,64z"></path></g><g><path d="M11,54.001c-0.553,0-1-0.447-1-1V48.8c0-0.553,0.447-1,1-1s1,0.447,1,1v4.201C12,53.554,11.553,54.001,11,54.001z"></path></g><g><path d="M21,54c-0.553,0-1-0.447-1-1v-4.2c0-0.553,0.447-1,1-1s1,0.447,1,1V53C22,53.553,21.553,54,21,54z"></path></g><g><path d="M16,51C9.383,51,4,45.617,4,39c0-0.553,0.447-1,1-1s1,0.447,1,1c0,5.514,4.486,10,10,10s10-4.486,10-10     c0-0.553,0.447-1,1-1s1,0.447,1,1C28,45.617,22.617,51,16,51z"></path></g><g><path d="M5,40.001c-0.553,0-1-0.447-1-1V30c0-0.553,0.447-1,1-1s1,0.447,1,1v9.001C6,39.554,5.553,40.001,5,40.001z"></path></g><g><path d="M27,40.002c-0.553,0-1-0.447-1-1V30c0-0.553,0.447-1,1-1s1,0.447,1,1v9.002C28,39.555,27.553,40.002,27,40.002z"></path></g><g><path d="M21,54.001H11c-0.553,0-1-0.447-1-1s0.447-1,1-1h10c0.553,0,1,0.447,1,1S21.553,54.001,21,54.001z"></path></g><g><path d="M16,48c-8.02,0-11.304-5.257-11.439-5.481c-0.287-0.472-0.137-1.087,0.336-1.373c0.472-0.286,1.084-0.137,1.371,0.332     l0,0C6.382,41.662,9.149,46,16,46c6.906,0,9.703-4.474,9.73-4.519c0.285-0.473,0.9-0.623,1.373-0.336     c0.473,0.286,0.623,0.901,0.336,1.373C27.304,42.743,24.02,48,16,48z"></path></g><g><path d="M7,64c-0.553,0-1-0.447-1-1V53c0-0.553,0.447-1,1-1s1,0.447,1,1v10C8,63.553,7.553,64,7,64z"></path></g><g><path d="M25,64c-0.553,0-1-0.447-1-1V53c0-0.553,0.447-1,1-1s1,0.447,1,1v10C26,63.553,25.553,64,25,64z"></path></g><g><path d="M59,60H31c-0.553,0-1-0.447-1-1s0.447-1,1-1h28c0.553,0,1,0.447,1,1S59.553,60,59,60z"></path></g><g><path d="M59,60c-0.553,0-1-0.447-1-1s0.447-1,1-1c1.654,0,3-1.346,3-3s-1.346-3-3-3c-0.553,0-1-0.447-1-1s0.447-1,1-1     c2.757,0,5,2.243,5,5S61.757,60,59,60z"></path></g><g><path d="M40,52c-2.757,0-5-2.243-5-5s2.243-5,5-5c0.553,0,1,0.447,1,1s-0.447,1-1,1c-1.654,0-3,1.346-3,3s1.346,3,3,3     c0.553,0,1,0.447,1,1S40.553,52,40,52z"></path></g><g><path d="M54,44c-0.553,0-1-0.447-1-1s0.447-1,1-1c1.654,0,3-1.346,3-3s-1.346-3-3-3c-0.553,0-1-0.447-1-1s0.447-1,1-1     c2.757,0,5,2.243,5,5S56.757,44,54,44z"></path></g><g><path d="M59,52.001H40c-0.553,0-1-0.447-1-1s0.447-1,1-1h19c0.553,0,1,0.447,1,1S59.553,52.001,59,52.001z"></path></g><g><path d="M54,36h-4c-0.553,0-1-0.447-1-1s0.447-1,1-1h4c0.553,0,1,0.447,1,1S54.553,36,54,36z"></path></g><g><path d="M48,38c-1.654,0-3-1.346-3-3s1.346-3,3-3s3,1.346,3,3S49.654,38,48,38z M48,34c-0.552,0-1,0.448-1,1s0.448,1,1,1     s1-0.448,1-1S48.552,34,48,34z"></path></g><g><path d="M54,44H40c-0.553,0-1-0.447-1-1s0.447-1,1-1h14c0.553,0,1,0.447,1,1S54.553,44,54,44z"></path></g><g><path d="M48,31.002c-3.925,0-12-12.786-12-19.002c0-6.617,5.383-12,12-12s12,5.383,12,12C60,18.216,51.925,31.002,48,31.002z      M48,2c-5.514,0-10,4.486-10,10c0,5.932,7.975,17.002,10,17.002S58,17.932,58,12C58,6.486,53.514,2,48,2z"></path></g><g><path d="M27,31.002c-0.553,0-1-0.447-1-1c0-2.206-1.794-4-4-4c-0.553,0-1-0.447-1-1s0.447-1,1-1c3.309,0,6,2.691,6,6     C28,30.555,27.553,31.002,27,31.002z"></path></g><g><path d="M22,26.002c-0.553,0-1-0.447-1-1v-4c0-0.553,0.447-1,1-1s1,0.447,1,1v4C23,25.555,22.553,26.002,22,26.002z"></path></g><g><path d="M22,22.002h-8c-0.553,0-1-0.447-1-1s0.447-1,1-1h8c0.553,0,1,0.447,1,1S22.553,22.002,22,22.002z"></path></g><g><path d="M5,31.002c-0.553,0-1-0.447-1-1c0-5.514,4.486-10,10-10c0.553,0,1,0.447,1,1s-0.447,1-1,1c-4.411,0-8,3.589-8,8     C6,30.555,5.553,31.002,5,31.002z"></path></g><g><path d="M48,17c-3.309,0-6-2.691-6-6s2.691-6,6-6s6,2.691,6,6S51.309,17,48,17z M48,7c-2.206,0-4,1.794-4,4s1.794,4,4,4     s4-1.794,4-4S50.206,7,48,7z"></path></g><g><path d="M48,21c-3.309,0-6-2.691-6-6c0-0.553,0.447-1,1-1s1,0.447,1,1c0,2.206,1.794,4,4,4s4-1.794,4-4c0-0.553,0.447-1,1-1     s1,0.447,1,1C54,18.309,51.309,21,48,21z"></path></g><g><path d="M48,21c-0.553,0-1-0.447-1-1v-4c0-0.553,0.447-1,1-1s1,0.447,1,1v4C49,20.553,48.553,21,48,21z"></path></g><g><path d="M48,13c-0.553,0-1-0.447-1-1v-2c0-0.553,0.447-1,1-1s1,0.447,1,1v2C49,12.553,48.553,13,48,13z"></path></g><g><path d="M43,16c-0.553,0-1-0.447-1-1v-4c0-0.553,0.447-1,1-1s1,0.447,1,1v4C44,15.553,43.553,16,43,16z"></path></g><g><path d="M53,16c-0.553,0-1-0.447-1-1v-4c0-0.553,0.447-1,1-1s1,0.447,1,1v4C54,15.553,53.553,16,53,16z"></path></g></g></g></svg>