<svg xmlns="http://www.w3.org/2000/svg" xmlns:xlink="http://www.w3.org/1999/xlink" width="510" height="454" viewBox="0 0 510 454"><defs><clipPath id="a"><rect width="428" height="242" rx="10" fill="none" stroke="#085ed0" stroke-miterlimit="10" stroke-width="2"></rect></clipPath><clipPath id="b"><path d="M0-65.532v-.045a2.344,2.344,0,0,1,2.342-2.347,2.344,2.344,0,0,1,2.334,2.285v.107A23.7,23.7,0,0,0,28.317-41.765,23.7,23.7,0,0,0,51.959-65.532,23.707,23.707,0,0,0,28.708-89.3l-.391,0a2.344,2.344,0,0,1-2.338-2.351A2.344,2.344,0,0,1,28.317-94,28.393,28.393,0,0,1,56.635-65.532,28.393,28.393,0,0,1,28.317-37.064,28.393,28.393,0,0,1,0-65.532Z" transform="translate(0 94)" fill="none" clip-rule="evenodd"></path></clipPath><clipPath id="d"><rect width="510" height="454"></rect></clipPath></defs><g id="c" clip-path="url(#d)"><g transform="translate(38.045 4)"><g transform="translate(0 0)"><g fill="none" stroke="#fff" stroke-miterlimit="10" stroke-width="2"><rect width="428" height="242" rx="10" stroke="none"></rect><rect x="1" y="1" width="426" height="240" rx="9" fill="none"></rect></g><g clip-path="url(#a)"><rect width="428" transform="translate(0 30)" fill="#fdfdfd"></rect><g transform="translate(22.799 7.23)"><path d="M5.5,11A5.5,5.5,0,0,1,1.611,1.611,5.5,5.5,0,1,1,9.389,9.389,5.464,5.464,0,0,1,5.5,11ZM5.5.846A4.654,4.654,0,0,0,2.209,8.791,4.654,4.654,0,0,0,8.791,2.209,4.624,4.624,0,0,0,5.5.846Z" transform="translate(375.201 1.77)" fill="#fdfdfd"></path><path d="M10.845,3.163a3.163,3.163,0,1,1,3.163,3.163A3.167,3.167,0,0,1,10.845,3.163Zm1.055,0a2.109,2.109,0,1,0,2.109-2.109A2.111,2.111,0,0,0,11.9,3.163ZM0,3.163A3.163,3.163,0,1,1,3.163,6.326,3.167,3.167,0,0,1,0,3.163Zm1.055,0A2.109,2.109,0,1,0,3.163,1.055,2.111,2.111,0,0,0,1.055,3.163Z" transform="translate(0 4.519)" fill="#fdfdfd"></path><g transform="translate(87.632)" fill="none" stroke="#fff" stroke-miterlimit="10" stroke-width="2"><rect width="207.325" height="15.364" rx="7.682" stroke="none"></rect><rect x="1" y="1" width="205.325" height="13.364" rx="6.682" fill="none"></rect></g></g></g></g></g><g transform="translate(1 60.243)"><g transform="translate(0 15.757)"><path d="M82.075,144.711a1.115,1.115,0,0,1,.014-2.23H82.1c1.352.017,2.725.025,4.08.025.489,0,.986,0,1.477,0h0a1.115,1.115,0,0,1,.005,2.229c-.5,0-1.009,0-1.513,0C84.792,144.736,83.418,144.728,82.075,144.711Zm15.613-1.285a1.115,1.115,0,0,1,1.073-1.156c1.839-.069,3.706-.153,5.548-.251l.06,0a1.115,1.115,0,0,1,.058,2.228c-1.871.1-3.75.185-5.584.253H98.8A1.111,1.111,0,0,1,97.688,143.426Zm-26.744.944h-.055c-1.864-.092-3.743-.2-5.585-.329a1.115,1.115,0,0,1,.076-2.227l.077,0c1.828.125,3.693.235,5.542.326a1.115,1.115,0,0,1-.054,2.228Zm43.444-1.912a1.114,1.114,0,0,1,1.016-1.205c1.824-.155,3.685-.328,5.529-.513a1.076,1.076,0,0,1,.114-.006,1.115,1.115,0,0,1,.11,2.224c-1.849.186-3.721.36-5.563.516-.032,0-.064,0-.1,0A1.121,1.121,0,0,1,114.388,142.458Zm-60.216.58c-1.873-.21-3.743-.443-5.56-.691a1.115,1.115,0,1,1,.3-2.209c1.8.246,3.651.476,5.506.684a1.115,1.115,0,0,1-.123,2.222A1.194,1.194,0,0,1,54.171,143.038Zm76.842-2.339a1.114,1.114,0,0,1,.957-1.252c1.851-.248,3.7-.511,5.5-.782a1.182,1.182,0,0,1,.168-.012,1.121,1.121,0,0,1,1.1.949,1.114,1.114,0,0,1-.936,1.269c-1.81.273-3.672.538-5.534.787a1.2,1.2,0,0,1-.149.01A1.117,1.117,0,0,1,131.013,140.7Zm-93.478-.17c-1.866-.361-3.712-.749-5.487-1.151a1.115,1.115,0,1,1,.493-2.174c1.762.4,3.585.782,5.417,1.137a1.115,1.115,0,0,1-.211,2.209A1.142,1.142,0,0,1,37.535,140.529Zm109.992-2.412a1.115,1.115,0,0,1,.89-1.3c1.831-.344,3.664-.706,5.447-1.076a1.1,1.1,0,0,1,.228-.024,1.119,1.119,0,0,1,1.09.889,1.115,1.115,0,0,1-.864,1.318c-1.815.376-3.662.741-5.489,1.084a1.163,1.163,0,0,1-.207.019A1.114,1.114,0,0,1,147.527,138.117ZM21.2,136.491c-1.832-.567-3.628-1.168-5.339-1.788a1.115,1.115,0,0,1-.669-1.428,1.118,1.118,0,0,1,1.048-.735,1.1,1.1,0,0,1,.379.067c1.686.61,3.448,1.2,5.239,1.754a1.115,1.115,0,1,1-.659,2.13Zm142.677-1.885a1.115,1.115,0,0,1,.807-1.354c1.8-.458,3.605-.938,5.357-1.428a1.106,1.106,0,0,1,.3-.042,1.115,1.115,0,0,1,.3,2.189c-1.756.492-3.577.978-5.411,1.443a1.132,1.132,0,0,1-.275.034A1.114,1.114,0,0,1,163.876,134.607Zm16.049-4.657a1.114,1.114,0,0,1,.689-1.418c1.782-.617,3.53-1.257,5.195-1.9a1.1,1.1,0,0,1,.4-.076,1.122,1.122,0,0,1,1.039.712,1.115,1.115,0,0,1-.636,1.443c-1.69.656-3.464,1.305-5.273,1.931a1.115,1.115,0,0,1-1.418-.689Zm-173.938.435a1.1,1.1,0,0,1-.5-.12c-1.731-.875-3.4-1.8-4.949-2.741a1.115,1.115,0,1,1,1.157-1.905c1.506.915,3.12,1.809,4.8,2.656a1.115,1.115,0,0,1-.5,2.11Zm189.421-6.722a1.115,1.115,0,0,1,.488-1.5c1.7-.866,3.32-1.76,4.807-2.657a1.115,1.115,0,1,1,1.151,1.909c-1.537.927-3.2,1.847-4.948,2.735a1.114,1.114,0,0,1-1.5-.488Zm14.1-8.952a1.115,1.115,0,0,1,.2-1.564c1.416-1.1,2.868-2.269,4.316-3.473a1.115,1.115,0,1,1,1.425,1.714c-1.467,1.219-2.938,2.4-4.373,3.519a1.115,1.115,0,0,1-1.564-.2Zm87.188-1.435c-1.878-.007-3.766-.046-5.61-.115a1.115,1.115,0,0,1,.041-2.229h.043c1.823.069,3.685.107,5.533.113a1.115,1.115,0,0,1,0,2.23Zm10.037-1.372a1.114,1.114,0,0,1,1.045-1.18c1.823-.111,3.679-.251,5.518-.417.034,0,.068,0,.1,0a1.115,1.115,0,0,1,.1,2.225c-1.88.169-3.758.311-5.583.422l-.069,0A1.115,1.115,0,0,1,306.735,111.9Zm-26.85.417c-1.871-.213-3.744-.463-5.566-.745a1.116,1.116,0,0,1-.931-1.272,1.113,1.113,0,0,1,1.272-.931c1.795.278,3.638.524,5.477.733a1.115,1.115,0,0,1-.125,2.223A1.212,1.212,0,0,1,279.885,112.321Zm43.479-2.053a1.117,1.117,0,0,1,.942-1.264c1.8-.262,3.643-.555,5.477-.869a1.1,1.1,0,0,1,.19-.016,1.115,1.115,0,0,1,.187,2.214c-1.854.318-3.715.613-5.532.878a1.176,1.176,0,0,1-.162.012A1.12,1.12,0,0,1,323.364,110.268Zm-60.07-.889c-1.828-.45-3.654-.946-5.428-1.473a1.114,1.114,0,0,1-.751-1.386,1.114,1.114,0,0,1,1.386-.751c1.743.518,3.535,1,5.325,1.444a1.115,1.115,0,0,1-.266,2.2A1.133,1.133,0,0,1,263.294,109.379Zm76.522-2.051a1.114,1.114,0,0,1,.849-1.328l1.441-.323c1.33-.3,2.663-.623,3.961-.949a1.1,1.1,0,0,1,.273-.034,1.115,1.115,0,0,1,.271,2.2c-1.623.408-3.318.81-5.038,1.192l-.429.095a1.135,1.135,0,0,1-.241.026A1.121,1.121,0,0,1,339.816,107.329Zm-117.528-3.4a1.115,1.115,0,0,1,.065-1.576c1.3-1.2,2.626-2.441,4.053-3.8a1.115,1.115,0,0,1,1.538,1.614c-1.42,1.354-2.754,2.606-4.08,3.828a1.115,1.115,0,0,1-1.575-.065Zm25.379.309a1.112,1.112,0,0,1-.425-.084c-1.745-.721-3.477-1.493-5.149-2.295a1.115,1.115,0,0,1-.523-1.487,1.121,1.121,0,0,1,1.005-.633,1.1,1.1,0,0,1,.482.11c1.636.784,3.33,1.539,5.036,2.244a1.115,1.115,0,0,1-.425,2.145Zm108.3-1.18a1.114,1.114,0,0,1,.7-1.41c1.789-.6,3.536-1.226,5.194-1.869a1.1,1.1,0,0,1,.4-.076,1.122,1.122,0,0,1,1.039.712,1.115,1.115,0,0,1-.636,1.443c-1.693.657-3.475,1.3-5.294,1.9a1.113,1.113,0,0,1-1.41-.7ZM371.429,96.7a1.115,1.115,0,0,1,.445-1.512c1.663-.907,3.24-1.857,4.689-2.825a1.115,1.115,0,0,1,1.238,1.854c-1.507,1.006-3.142,1.991-4.86,2.928a1.115,1.115,0,0,1-1.512-.445ZM234.361,92.368a1.115,1.115,0,0,1,.009-1.576l3.961-3.923a1.115,1.115,0,0,1,1.568,1.585l-3.962,3.923a1.115,1.115,0,0,1-1.576-.009ZM384.91,86.842a1.114,1.114,0,0,1-.118-1.572,26.349,26.349,0,0,0,3.076-4.371,1.115,1.115,0,1,1,1.949,1.082,28.567,28.567,0,0,1-3.336,4.744,1.115,1.115,0,0,1-1.572.118Zm-165.937-.977c-1.362-1.353-2.657-2.753-3.85-4.161a1.115,1.115,0,1,1,1.7-1.441c1.15,1.358,2.4,2.711,3.721,4.02a1.115,1.115,0,0,1-1.571,1.582Zm27.307-5.23a1.114,1.114,0,0,1,.032-1.576c1.05-1.009,2.082-1.99,3.07-2.917l.991-.927a1.115,1.115,0,0,1,1.519,1.632c-.958.892-1.94,1.817-3,2.828l-1.036.992a1.115,1.115,0,0,1-1.576-.032Zm-37.575-8.319a33.81,33.81,0,0,1-2.248-5.308,1.115,1.115,0,1,1,2.124-.678,31.552,31.552,0,0,0,2.1,4.955,1.115,1.115,0,0,1-1.977,1.031Zm181.705-1.493a19.884,19.884,0,0,0-.881-5.2,1.115,1.115,0,1,1,2.131-.654,22.1,22.1,0,0,1,.977,5.786A1.115,1.115,0,0,1,391.56,71.9h-.035A1.109,1.109,0,0,1,390.411,70.823ZM258.6,69.335a1.115,1.115,0,0,1,.128-1.571c1.448-1.23,2.9-2.43,4.326-3.568a1.115,1.115,0,1,1,1.392,1.741c-1.4,1.117-2.835,2.3-4.275,3.527a1.115,1.115,0,0,1-1.571-.128Zm14.086-9.819a1.114,1.114,0,0,1-.635-2.031c1.546-1.069,3.121-2.113,4.682-3.1a1.115,1.115,0,0,1,1.195,1.882c-1.539.977-3.089,2-4.609,3.056a1.108,1.108,0,0,1-.632.2Zm-65.751-2.793a1.116,1.116,0,0,1-.851-1.327,30.3,30.3,0,0,1,1.787-5.5,1.113,1.113,0,0,1,1.023-.673,1.115,1.115,0,0,1,1.023,1.557,28.048,28.048,0,0,0-1.656,5.1,1.112,1.112,0,0,1-1.327.85ZM384.3,56.3a38.949,38.949,0,0,0-3.753-3.905,1.115,1.115,0,1,1,1.5-1.649,41.158,41.158,0,0,1,3.968,4.13A1.115,1.115,0,0,1,384.3,56.3Zm-98.309-6.038a1.115,1.115,0,0,1,.471-1.5c1.65-.863,3.344-1.7,5.035-2.5a1.105,1.105,0,0,1,.473-.106,1.12,1.12,0,0,1,1.01.641,1.115,1.115,0,0,1-.535,1.482c-1.663.781-3.329,1.608-4.949,2.456a1.115,1.115,0,0,1-1.5-.471Zm85.73-4.228c-1.551-.892-3.187-1.738-4.865-2.512a1.115,1.115,0,1,1,.935-2.024c1.737.8,3.433,1.678,5.042,2.6a1.114,1.114,0,0,1,.41,1.522,1.115,1.115,0,0,1-1.522.411Zm-70.509-2.685a1.114,1.114,0,0,1,.659-1.432c1.739-.643,3.524-1.261,5.309-1.839a1.115,1.115,0,0,1,.686,2.121c-1.75.566-3.507,1.175-5.222,1.809a1.114,1.114,0,0,1-1.432-.659Zm-87.131-1.576a1.115,1.115,0,0,1-.153-1.569c1.15-1.4,2.437-2.812,3.825-4.2a1.115,1.115,0,1,1,1.577,1.576c-1.337,1.338-2.574,2.7-3.68,4.041a1.116,1.116,0,0,1-1.569.153Zm142.459-2.027c-1.75-.489-3.545-.918-5.336-1.276a1.115,1.115,0,1,1,.437-2.186c1.852.371,3.7.813,5.5,1.315a1.114,1.114,0,0,1,.774,1.374,1.114,1.114,0,0,1-1.373.774ZM317.173,38.38A1.115,1.115,0,0,1,318,37.035c.454-.109.908-.216,1.347-.317,1.382-.318,2.788-.6,4.179-.839a1.094,1.094,0,0,1,.19-.016,1.115,1.115,0,0,1,.187,2.214c-1.355.232-2.719.506-4.055.815-.46.105-.906.211-1.328.313a1.129,1.129,0,0,1-.261.031A1.111,1.111,0,0,1,317.173,38.38Zm-70.99-.611a.553.553,0,0,1-.467-.369l-5.7-16.1-14.775-8.847a.558.558,0,0,1,.067-.993l.068-.024L265.824.022A.563.563,0,0,1,266.037,0a.557.557,0,0,1,.434.3.547.547,0,0,1,0,.522L246.733,37.479a.547.547,0,0,1-.487.293A.587.587,0,0,1,246.184,37.769Zm-19.26-25.6,13.837,8.286a.56.56,0,0,1,.208.221l.031.071,5.347,15.1L264.86,1.454h0ZM340.313,37.107c-1.274-.066-2.567-.1-3.842-.1-.547,0-1.1.006-1.649.018H334.8a1.12,1.12,0,0,1-1.114-1.09,1.115,1.115,0,0,1,1.09-1.139c.563-.013,1.135-.019,1.7-.019,1.311,0,2.641.034,3.954.1a1.115,1.115,0,0,1-.056,2.228Zm-114.237-6.92a1.115,1.115,0,0,1,.215-1.562c1.439-1.091,2.977-2.2,4.571-3.284a1.115,1.115,0,0,1,1.257,1.842c-1.559,1.063-3.066,2.146-4.481,3.219a1.116,1.116,0,0,1-1.562-.215Z" transform="translate(0.246 4.382)" fill="#fff"></path></g><g transform="translate(311.938 -0.243)"><rect width="196" height="331" fill="none"></rect><g transform="translate(17.529 0.265)"><rect width="162.91" height="331.093" rx="16" fill="#fff" stroke="#21d1a1" stroke-width="1"></rect><rect width="22.752" height="4.618" rx="2.309" transform="translate(64.388 9.887)" fill="#e5e7eb"></rect><circle cx="2.621" cy="2.621" r="2.621" transform="translate(90.574 9.575)" fill="#e5e7eb"></circle></g><path d="M129.851,0H111.2V2.259A10.655,10.655,0,0,1,100.547,12.91H41.089A10.655,10.655,0,0,1,30.434,2.259V0h-17.5A12.937,12.937,0,0,0,0,12.937V300.908a12.937,12.937,0,0,0,12.937,12.937H129.851a12.937,12.937,0,0,0,12.937-12.937V12.937S137,0,129.851,0Z" transform="translate(26.236 8.892)" fill="#ecf1f8"></path><path d="M11.062,277.017a10,10,0,0,1-10-10v-3.086a10,10,0,0,1,10-10h3.086a10,10,0,0,1,10,10v3.086a10,10,0,0,1-10,10Zm-.176-42.322a10,10,0,0,1-10-10v-3.087a10,10,0,0,1,10-10h3.086a10,10,0,0,1,10,10v3.087a10,10,0,0,1-10,10Zm-.176-42.323a10,10,0,0,1-10-10v-3.087a10,10,0,0,1,10-10H13.8a10,10,0,0,1,10,10v3.087a10,10,0,0,1-10,10Zm-.18-42.322a10,10,0,0,1-10-10v-3.087a10,10,0,0,1,10-10h3.086a10,10,0,0,1,10,10v3.087a10,10,0,0,1-10,10Zm-.353-84.641a10,10,0,0,1-10-10V52.322a10,10,0,0,1,10-10h3.086a10,10,0,0,1,10,10v3.086a10,10,0,0,1-10,10ZM10,23.086a10,10,0,0,1-10-10V10A10,10,0,0,1,10,0h3.086a10,10,0,0,1,10,10v3.086a10,10,0,0,1-10,10Z" transform="translate(37.19 32.8)" fill="#d6d8e0"></path><rect width="48.369" height="4.397" rx="2.198" transform="translate(77.312 34.45)" fill="#d6d8e0"></rect><rect width="79.697" height="4.397" rx="2.198" transform="translate(77.312 42.145)" fill="#d6d8e0"></rect><rect width="79.697" height="4.397" rx="2.198" transform="translate(77.312 49.841)" fill="#d6d8e0"></rect><rect width="48.369" height="4.397" rx="2.198" transform="translate(77.488 76.772)" fill="#d6d8e0"></rect><rect width="79.697" height="4.397" rx="2.198" transform="translate(77.488 84.468)" fill="#d6d8e0"></rect><rect width="79.697" height="4.397" rx="2.198" transform="translate(77.488 92.159)" fill="#d6d8e0"></rect><rect width="23.086" height="23.086" transform="translate(37.542 117.446)" fill="#d6d8e0"></rect><rect width="48.369" height="4.397" transform="translate(77.669 119.09)" fill="#d6d8e0"></rect><rect width="79.697" height="4.397" transform="translate(77.669 126.786)" fill="#d6d8e0"></rect><rect width="79.697" height="4.397" transform="translate(77.669 134.481)" fill="#d6d8e0"></rect><rect width="48.369" height="4.397" rx="2.198" transform="translate(77.845 161.413)" fill="#d6d8e0"></rect><rect width="79.697" height="4.397" rx="2.198" transform="translate(77.845 169.108)" fill="#d6d8e0"></rect><rect width="79.697" height="4.397" rx="2.198" transform="translate(77.845 176.804)" fill="#d6d8e0"></rect><rect width="48.369" height="4.397" rx="2.198" transform="translate(78.021 203.736)" fill="#d6d8e0"></rect><rect width="79.697" height="4.397" rx="2.198" transform="translate(78.021 211.431)" fill="#d6d8e0"></rect><rect width="79.697" height="4.397" rx="2.198" transform="translate(78.021 219.126)" fill="#d6d8e0"></rect><rect width="48.369" height="4.397" rx="2.198" transform="translate(78.197 246.058)" fill="#d6d8e0"></rect><rect width="79.697" height="4.397" rx="2.198" transform="translate(78.197 253.754)" fill="#d6d8e0"></rect><rect width="79.697" height="4.397" rx="2.198" transform="translate(78.197 261.449)" fill="#d6d8e0"></rect><rect width="48.369" height="4.397" rx="2.198" transform="translate(78.374 288.381)" fill="#d6d8e0"></rect><rect width="79.697" height="4.397" rx="2.198" transform="translate(78.374 296.076)" fill="#d6d8e0"></rect><rect width="79.697" height="4.397" rx="2.198" transform="translate(78.374 303.772)" fill="#d6d8e0"></rect><rect width="195.119" height="46.719" rx="11" transform="translate(0.344 103.514)" fill="#fff"></rect><g transform="translate(78.121 116.98)" opacity="0.5"><rect width="48.369" height="4.397" rx="2.198" transform="translate(0 0)" fill="#59a0ff"></rect><rect width="79.697" height="4.397" rx="2.198" transform="translate(0 7.695)" fill="#59a0ff"></rect><rect width="79.697" height="4.397" rx="2.198" transform="translate(0 15.391)" fill="#59a0ff"></rect></g><path d="M3.52,3.408H0A11.071,11.071,0,0,1,.827.661.628.628,0,0,1,.976.421.217.217,0,0,1,1.026.38c.1-.081.249-.113.361-.19s.127-.158.23-.19a3.122,3.122,0,0,1,1.148.19,1.148,1.148,0,0,1,.3.077,1.021,1.021,0,0,1,.479.587A5.546,5.546,0,0,1,3.52,3.408Z" transform="translate(40.836 135.28)" fill="#fff"></path><g transform="translate(30.286 116.9)"><path d="M17.338,23.193H4.025l0-13.789,10.148,7.231a.867.867,0,0,0,1.01,0L25.326,9.408v8.3H27.1V8.577A1.8,1.8,0,0,0,25.326,6.75H4.025A1.8,1.8,0,0,0,2.25,8.577V23.193A1.8,1.8,0,0,0,4.025,25.02H17.338ZM23.373,8.577l-8.7,6.2-8.7-6.2Z" transform="translate(-2.25 -6.75)" fill="#21d1a1"></path><path d="M29.774,25.012A2.512,2.512,0,1,1,27.262,22.5,2.512,2.512,0,0,1,29.774,25.012Z" transform="translate(-4.922 -7.998)" fill="#21d1a1"></path></g></g></g><g transform="translate(124.782 105.455)"><rect width="71.962" height="40.113" rx="7" fill="#1dd1a1"></rect><path d="M2.877,16.572a2.877,2.877,0,0,1,0-5.755H31.3a2.877,2.877,0,0,1,0,5.755Zm0-10.816A2.878,2.878,0,0,1,2.877,0H52.443a2.878,2.878,0,0,1,0,5.756Z" transform="translate(9.895 11.788)" fill="#fff"></path></g><g transform="translate(141.114 254)"><path d="M3.349,0H179.172a3.349,3.349,0,0,1,3.349,3.349V60.282a3.349,3.349,0,0,1-3.349,3.349H3.349A3.349,3.349,0,0,1,0,60.282V3.349A3.349,3.349,0,0,1,3.349,0Z" fill="#fff" stroke="#21d1a1" stroke-width="1"></path><path d="M61.455,35.246V9.356H67.6v25.89Zm-10.243,0V3.461h6.146V35.246Zm-10.243,0V12.176h6.146v23.07Zm-10.243,0V3.461h6.146V35.246Zm-10.242,0V19.61H26.63V35.246Zm-10.243,0v-18.2h6.145v18.2ZM0,35.246V0H6.146V35.246Z" transform="translate(106.35 14.361)" fill="#1dd1a1"></path><g transform="translate(6.32 19.316)"><path d="M5.564-8.718A3.6,3.6,0,0,0,6.65-8.855a2.388,2.388,0,0,0,1.243-.981,4.021,4.021,0,0,0,.556-1.491,5.689,5.689,0,0,0,.1-1.007,4.691,4.691,0,0,0-.71-2.773A2.622,2.622,0,0,0,5.551-16.1H3.242v7.378Zm-3.63-8.5H5.826A3.668,3.668,0,0,1,8.9-15.809a5.185,5.185,0,0,1,.975,3.251A6.477,6.477,0,0,1,9.3-9.791,3.551,3.551,0,0,1,5.812-7.606H1.934Zm12.376,2.446a3.2,3.2,0,0,1,1.446.35,2.666,2.666,0,0,1,1.066.906,3.125,3.125,0,0,1,.471,1.236,8.089,8.089,0,0,1,.1,1.544H12.262a3,3,0,0,0,.5,1.71,1.686,1.686,0,0,0,1.459.644A1.886,1.886,0,0,0,15.7-8.986a2.051,2.051,0,0,0,.445-.818H17.3a2.438,2.438,0,0,1-.3.86,3.059,3.059,0,0,1-.579.775,2.744,2.744,0,0,1-1.328.706,4.034,4.034,0,0,1-.962.1,2.95,2.95,0,0,1-2.217-.952A3.7,3.7,0,0,1,11-10.975a4.026,4.026,0,0,1,.916-2.741A3.021,3.021,0,0,1,14.309-14.768Zm1.877,3.1a3.05,3.05,0,0,0-.334-1.223,1.71,1.71,0,0,0-1.616-.85,1.791,1.791,0,0,0-1.361.585,2.212,2.212,0,0,0-.582,1.488Zm2.688-5.547h1.177v9.609H18.875Zm2.943,2.636h1.2v6.973h-1.2Zm0-2.636h1.2v1.334h-1.2Zm3.552,2.6,1.871,5.7,1.956-5.7h1.289L27.843-7.606H26.587L24-14.612Zm9.04-.157a3.2,3.2,0,0,1,1.446.35,2.666,2.666,0,0,1,1.066.906,3.125,3.125,0,0,1,.471,1.236,8.088,8.088,0,0,1,.1,1.544H32.363a3,3,0,0,0,.5,1.71,1.686,1.686,0,0,0,1.459.644A1.886,1.886,0,0,0,35.8-8.986a2.051,2.051,0,0,0,.445-.818H37.4a2.438,2.438,0,0,1-.3.86,3.059,3.059,0,0,1-.579.775,2.744,2.744,0,0,1-1.328.706,4.034,4.034,0,0,1-.962.1,2.95,2.95,0,0,1-2.217-.952,3.7,3.7,0,0,1-.909-2.665,4.026,4.026,0,0,1,.916-2.741A3.021,3.021,0,0,1,34.41-14.768Zm1.877,3.1a3.05,3.05,0,0,0-.334-1.223,1.71,1.71,0,0,0-1.616-.85,1.791,1.791,0,0,0-1.361.585,2.211,2.211,0,0,0-.582,1.488Zm2.688-2.943h1.119v1.21a2.674,2.674,0,0,1,.674-.86A1.747,1.747,0,0,1,42-14.768q.033,0,.111.007l.268.026v1.243a1.758,1.758,0,0,0-.193-.026q-.088-.007-.193-.007a1.68,1.68,0,0,0-1.367.572,2,2,0,0,0-.477,1.318v4.029H38.976Zm8.8,0h1.3q-.249.674-1.105,3.074Q47.335-9.732,46.9-8.594a19.9,19.9,0,0,1-1.439,3.271,1.645,1.645,0,0,1-1.439.589,2.823,2.823,0,0,1-.383-.02,3.023,3.023,0,0,1-.33-.072V-5.9a4.062,4.062,0,0,0,.445.1,1.736,1.736,0,0,0,.242.02.847.847,0,0,0,.481-.108,1,1,0,0,0,.258-.265q.033-.052.235-.536t.294-.72l-2.59-7.208h1.334l1.877,5.7ZM54.524-9.8a1.712,1.712,0,0,0,.294.9,1.85,1.85,0,0,0,1.544.569,2.277,2.277,0,0,0,1.151-.285.945.945,0,0,0,.5-.88.752.752,0,0,0-.4-.687,4.744,4.744,0,0,0-1.007-.334l-.935-.235a4.563,4.563,0,0,1-1.321-.5,1.486,1.486,0,0,1-.759-1.321A2.019,2.019,0,0,1,54.3-14.18a2.857,2.857,0,0,1,1.926-.615,2.674,2.674,0,0,1,2.283.929,2.016,2.016,0,0,1,.425,1.269H57.827a1.362,1.362,0,0,0-.281-.726,1.794,1.794,0,0,0-1.406-.464,1.681,1.681,0,0,0-1.011.255.8.8,0,0,0-.343.674.829.829,0,0,0,.451.733,2.712,2.712,0,0,0,.772.288l.778.19a6.018,6.018,0,0,1,1.7.6,1.576,1.576,0,0,1,.687,1.419,2.163,2.163,0,0,1-.71,1.616,3.021,3.021,0,0,1-2.162.68,2.9,2.9,0,0,1-2.214-.71,2.684,2.684,0,0,1-.7-1.756Zm6.234-6.763h1.19v1.956h1.119v.962H61.948v4.572a.5.5,0,0,0,.249.491,1.057,1.057,0,0,0,.458.072q.085,0,.183,0t.229-.016v.929a2.628,2.628,0,0,1-.422.085,4.011,4.011,0,0,1-.474.026,1.278,1.278,0,0,1-1.119-.422,1.875,1.875,0,0,1-.294-1.1V-13.65h-.948v-.962h.948Zm4.389,7.1a.97.97,0,0,0,.373.8,1.382,1.382,0,0,0,.883.294,2.685,2.685,0,0,0,1.2-.288,1.62,1.62,0,0,0,.981-1.563v-.948a2.014,2.014,0,0,1-.556.229,4.737,4.737,0,0,1-.667.131l-.713.092a2.727,2.727,0,0,0-.962.268A1.045,1.045,0,0,0,65.146-9.47ZM68-11.851a.64.64,0,0,0,.543-.34,1.035,1.035,0,0,0,.078-.451.956.956,0,0,0-.428-.873,2.3,2.3,0,0,0-1.226-.271,1.558,1.558,0,0,0-1.308.5,1.636,1.636,0,0,0-.281.818h-1.1a2.023,2.023,0,0,1,.841-1.8,3.451,3.451,0,0,1,1.874-.507A3.813,3.813,0,0,1,69-14.311a1.6,1.6,0,0,1,.765,1.465V-8.81a.517.517,0,0,0,.075.294.363.363,0,0,0,.317.111q.078,0,.177-.01t.209-.029v.87a3.279,3.279,0,0,1-.419.1,3.059,3.059,0,0,1-.392.02.968.968,0,0,1-.883-.432,1.666,1.666,0,0,1-.2-.648,3,3,0,0,1-1.033.818,3.2,3.2,0,0,1-1.485.347,2.208,2.208,0,0,1-1.593-.592,1.966,1.966,0,0,1-.618-1.482,1.908,1.908,0,0,1,.608-1.511,2.894,2.894,0,0,1,1.6-.661Zm3.931-4.716h1.19v1.956h1.119v.962H73.12v4.572a.5.5,0,0,0,.249.491,1.056,1.056,0,0,0,.458.072q.085,0,.183,0t.229-.016v.929a2.628,2.628,0,0,1-.422.085,4.011,4.011,0,0,1-.474.026,1.278,1.278,0,0,1-1.119-.422,1.875,1.875,0,0,1-.294-1.1V-13.65h-.948v-.962h.948ZM76.116-9.8a1.712,1.712,0,0,0,.294.9,1.85,1.85,0,0,0,1.544.569A2.277,2.277,0,0,0,79.1-8.617a.945.945,0,0,0,.5-.88.752.752,0,0,0-.4-.687,4.744,4.744,0,0,0-1.007-.334l-.935-.235a4.563,4.563,0,0,1-1.321-.5,1.486,1.486,0,0,1-.759-1.321A2.019,2.019,0,0,1,75.9-14.18a2.857,2.857,0,0,1,1.926-.615,2.674,2.674,0,0,1,2.283.929,2.016,2.016,0,0,1,.425,1.269H79.419a1.362,1.362,0,0,0-.281-.726,1.794,1.794,0,0,0-1.406-.464,1.681,1.681,0,0,0-1.011.255.8.8,0,0,0-.343.674.829.829,0,0,0,.451.733,2.712,2.712,0,0,0,.772.288l.778.19a6.018,6.018,0,0,1,1.7.6,1.576,1.576,0,0,1,.687,1.419,2.163,2.163,0,0,1-.71,1.616,3.021,3.021,0,0,1-2.162.68,2.9,2.9,0,0,1-2.214-.71,2.684,2.684,0,0,1-.7-1.756Z" transform="translate(-1.034 32.944)" fill="#3f3b3b"></path><path d="M6.82-14.367v.954h-2.7V-6.36H3.02v-7.053H.322v-.954Zm.861-.027h.981v2.987a2.833,2.833,0,0,1,.627-.621,2.115,2.115,0,0,1,1.183-.311,1.749,1.749,0,0,1,1.722.888A3.03,3.03,0,0,1,12.44-10.1V-6.36H11.431v-3.679a2.058,2.058,0,0,0-.164-.943,1.045,1.045,0,0,0-1-.48,1.671,1.671,0,0,0-1.107.42,2.018,2.018,0,0,0-.5,1.586v3.1H7.681Zm6.209,2.224h1V-6.36h-1Zm0-2.2h1v1.112h-1Zm3.063,6.176a1.427,1.427,0,0,0,.245.752,1.541,1.541,0,0,0,1.286.474,1.9,1.9,0,0,0,.959-.237.787.787,0,0,0,.414-.733.627.627,0,0,0-.333-.572,3.953,3.953,0,0,0-.839-.278l-.779-.2a3.8,3.8,0,0,1-1.1-.414,1.238,1.238,0,0,1-.632-1.1,1.682,1.682,0,0,1,.6-1.341,2.381,2.381,0,0,1,1.605-.512,2.228,2.228,0,0,1,1.9.774,1.68,1.68,0,0,1,.354,1.057h-.927a1.135,1.135,0,0,0-.234-.605,1.5,1.5,0,0,0-1.172-.387,1.4,1.4,0,0,0-.842.213.666.666,0,0,0-.286.561.691.691,0,0,0,.376.61,2.26,2.26,0,0,0,.643.24l.649.158a5.015,5.015,0,0,1,1.417.5,1.313,1.313,0,0,1,.572,1.183A1.8,1.8,0,0,1,20.237-6.7a2.518,2.518,0,0,1-1.8.567,2.417,2.417,0,0,1-1.845-.591,2.237,2.237,0,0,1-.581-1.464Zm8.76-6.176,1.51,6.514,1.81-6.514h1.177l1.81,6.514,1.51-6.514h1.188l-2.1,8.007H31.474L29.626-13,27.767-6.36H26.628l-2.093-8.007Zm12.112,2.039a2.663,2.663,0,0,1,1.2.292,2.221,2.221,0,0,1,.888.755,2.6,2.6,0,0,1,.392,1.03A6.741,6.741,0,0,1,40.4-8.965H36.118a2.5,2.5,0,0,0,.42,1.425A1.405,1.405,0,0,0,37.753-7,1.571,1.571,0,0,0,38.98-7.51a1.709,1.709,0,0,0,.371-.681h.965a2.032,2.032,0,0,1-.253.717,2.55,2.55,0,0,1-.482.646,2.286,2.286,0,0,1-1.107.589,3.361,3.361,0,0,1-.8.087,2.459,2.459,0,0,1-1.848-.793,3.086,3.086,0,0,1-.758-2.221,3.355,3.355,0,0,1,.763-2.284A2.517,2.517,0,0,1,37.824-12.329Zm1.564,2.584a2.542,2.542,0,0,0-.278-1.019,1.425,1.425,0,0,0-1.346-.709,1.492,1.492,0,0,0-1.134.488,1.843,1.843,0,0,0-.485,1.24Zm4.644-2.584a2.663,2.663,0,0,1,1.2.292,2.221,2.221,0,0,1,.888.755,2.6,2.6,0,0,1,.392,1.03,6.74,6.74,0,0,1,.087,1.286H42.327a2.5,2.5,0,0,0,.42,1.425A1.405,1.405,0,0,0,43.962-7a1.571,1.571,0,0,0,1.226-.507,1.709,1.709,0,0,0,.371-.681h.965a2.032,2.032,0,0,1-.253.717,2.549,2.549,0,0,1-.482.646,2.286,2.286,0,0,1-1.107.589,3.361,3.361,0,0,1-.8.087,2.459,2.459,0,0,1-1.848-.793,3.086,3.086,0,0,1-.758-2.221,3.355,3.355,0,0,1,.763-2.284A2.518,2.518,0,0,1,44.033-12.329ZM45.6-9.745a2.542,2.542,0,0,0-.278-1.019,1.425,1.425,0,0,0-1.346-.709,1.492,1.492,0,0,0-1.134.488,1.843,1.843,0,0,0-.485,1.24Zm2.191-4.622h.943v4.65L51.25-12.2H52.5l-2.235,2.186,2.36,3.652H51.375L49.555-9.3l-.823.752V-6.36h-.943Z" transform="translate(-0.322 14.395)" fill="#5d6f88"></path></g></g><rect width="129.236" height="117.487" rx="6" transform="translate(35.251 332.699)" fill="#fff" stroke="#707070" stroke-width="1"></rect><g transform="translate(71.401 345)"><g transform="translate(0 30.176)"><path d="M28.317,0A28.154,28.154,0,0,0,8.294,8.338a28.542,28.542,0,0,0,0,40.26,28.331,28.331,0,0,0,48.341-20.13A28.479,28.479,0,0,0,39.34,2.237,28.012,28.012,0,0,0,28.317,0Zm0,52.235A23.5,23.5,0,0,1,11.6,45.274a23.829,23.829,0,0,1,0-33.612A23.7,23.7,0,0,1,50.1,37.719,23.789,23.789,0,0,1,37.52,50.367,23.386,23.386,0,0,1,28.317,52.235Z" transform="translate(0 0)" fill="#f3f3f3"></path><g transform="translate(0.301)" clip-path="url(#b)"><path d="M-5-99H57.66v62.993H-5Z" transform="translate(1.988 95.971)" fill="#1dd1a1"></path></g><path d="M-11.123-10.273a7.852,7.852,0,0,0-.776.979,8.647,8.647,0,0,0-.833,1.454,8.656,8.656,0,0,0-.48,1.439,5.975,5.975,0,0,0-.214,1.4h-1.291A7.6,7.6,0,0,1-13.6-8.542a8.353,8.353,0,0,1,1.147-1.587h-3.153l.017-1.116h4.465ZM-9.391-6.7a1.2,1.2,0,0,0,.283.626.8.8,0,0,0,.61.22.824.824,0,0,0,.7-.325,1.331,1.331,0,0,0,.242-.818,1.42,1.42,0,0,0-.227-.818.794.794,0,0,0-.706-.334,1.216,1.216,0,0,0-.392.057.78.78,0,0,0-.44.388l-1.116-.052.445-3.493H-6.5v1.055H-9.091l-.227,1.382a2.6,2.6,0,0,1,.449-.249,1.9,1.9,0,0,1,.658-.1,1.978,1.978,0,0,1,1.369.528,1.962,1.962,0,0,1,.584,1.535,2.408,2.408,0,0,1-.563,1.565A2.045,2.045,0,0,1-8.5-4.839a2.236,2.236,0,0,1-1.483-.484A1.88,1.88,0,0,1-10.63-6.7Zm5.32-2.285a.668.668,0,0,0,.491-.2.668.668,0,0,0,.2-.491.668.668,0,0,0-.2-.491.668.668,0,0,0-.491-.2.668.668,0,0,0-.491.2.668.668,0,0,0-.2.491.668.668,0,0,0,.2.491A.668.668,0,0,0-4.071-8.982Zm1.622-.693a1.566,1.566,0,0,1-.473,1.147,1.561,1.561,0,0,1-1.149.475,1.563,1.563,0,0,1-1.147-.475,1.563,1.563,0,0,1-.475-1.147,1.563,1.563,0,0,1,.475-1.147A1.563,1.563,0,0,1-4.071-11.3a1.563,1.563,0,0,1,1.147.475A1.563,1.563,0,0,1-2.449-9.675ZM.861-6.5a.668.668,0,0,0-.2-.491.668.668,0,0,0-.491-.2.668.668,0,0,0-.491.2.668.668,0,0,0-.2.491.668.668,0,0,0,.2.491.668.668,0,0,0,.491.2.668.668,0,0,0,.491-.2A.668.668,0,0,0,.861-6.5Zm.929,0a1.563,1.563,0,0,1-.475,1.147,1.563,1.563,0,0,1-1.147.475A1.563,1.563,0,0,1-.98-5.354,1.563,1.563,0,0,1-1.455-6.5,1.561,1.561,0,0,1-.98-7.65,1.566,1.566,0,0,1,.167-8.123a1.563,1.563,0,0,1,1.147.475A1.563,1.563,0,0,1,1.789-6.5ZM-.526-11.328H.137L-3.387-4.839h-.676Z" transform="translate(35.301 36.597)" fill="#1dd1a1"></path></g></g><path d="M37.43,12.08h4.043V13H36.3V4.469H37.43Zm6.334.92H42.68V6.66h1.084ZM42.592,4.979a.647.647,0,0,1,.161-.445.6.6,0,0,1,.478-.182.614.614,0,0,1,.48.182.64.64,0,0,1,.164.445.619.619,0,0,1-.164.439.626.626,0,0,1-.48.176.616.616,0,0,1-.478-.176A.626.626,0,0,1,42.592,4.979Zm6.6,6.34a.8.8,0,0,0-.331-.683,3.187,3.187,0,0,0-1.154-.419A5.457,5.457,0,0,1,46.4,9.795a1.859,1.859,0,0,1-.715-.586,1.4,1.4,0,0,1-.231-.809,1.645,1.645,0,0,1,.659-1.318,2.574,2.574,0,0,1,1.685-.539,2.649,2.649,0,0,1,1.749.557,1.768,1.768,0,0,1,.671,1.424h-1.09a.979.979,0,0,0-.378-.768,1.416,1.416,0,0,0-.952-.322,1.482,1.482,0,0,0-.926.258.812.812,0,0,0-.334.674.658.658,0,0,0,.311.592,3.821,3.821,0,0,0,1.122.381,5.847,5.847,0,0,1,1.315.434,1.919,1.919,0,0,1,.747.606,1.491,1.491,0,0,1,.243.864,1.623,1.623,0,0,1-.68,1.362,2.851,2.851,0,0,1-1.764.513,3.193,3.193,0,0,1-1.348-.27,2.192,2.192,0,0,1-.917-.753,1.815,1.815,0,0,1-.331-1.046h1.084a1.122,1.122,0,0,0,.437.864,1.693,1.693,0,0,0,1.075.319,1.748,1.748,0,0,0,.987-.249A.765.765,0,0,0,49.189,11.318Zm3.967-6.193V6.66H54.34V7.5H53.156V11.43a.878.878,0,0,0,.158.571.666.666,0,0,0,.539.19,2.624,2.624,0,0,0,.516-.07V13a3.143,3.143,0,0,1-.832.117,1.35,1.35,0,0,1-1.1-.439,1.888,1.888,0,0,1-.369-1.248V7.5H50.918V6.66h1.154V5.125Zm6.5,2.3a2.3,2.3,0,0,1,1.875-.885q2.01,0,2.027,2.268V13H62.479V8.8a1.459,1.459,0,0,0-.313-1.014,1.256,1.256,0,0,0-.958-.328,1.564,1.564,0,0,0-.926.281,1.91,1.91,0,0,0-.621.738V13H58.576V4H59.66Zm8.156,5.689a2.77,2.77,0,0,1-2.1-.847,3.142,3.142,0,0,1-.809-2.265v-.2a3.8,3.8,0,0,1,.36-1.685,2.811,2.811,0,0,1,1.008-1.16,2.534,2.534,0,0,1,1.4-.419,2.374,2.374,0,0,1,1.922.814,3.526,3.526,0,0,1,.686,2.332v.451H65.994a2.254,2.254,0,0,0,.548,1.515,1.722,1.722,0,0,0,1.333.577A1.888,1.888,0,0,0,68.848,12a2.444,2.444,0,0,0,.7-.621l.662.516A2.662,2.662,0,0,1,67.816,13.117Zm-.135-5.684a1.446,1.446,0,0,0-1.1.478,2.321,2.321,0,0,0-.551,1.339h3.176V9.168a2.065,2.065,0,0,0-.445-1.28A1.361,1.361,0,0,0,67.682,7.434ZM75.457,13a2.277,2.277,0,0,1-.152-.668,2.419,2.419,0,0,1-1.8.785,2.238,2.238,0,0,1-1.538-.53,1.716,1.716,0,0,1-.6-1.345A1.792,1.792,0,0,1,72.114,9.7a3.55,3.55,0,0,1,2.118-.548h1.055v-.5a1.217,1.217,0,0,0-.34-.905,1.366,1.366,0,0,0-1-.337,1.581,1.581,0,0,0-.973.293.863.863,0,0,0-.393.709H71.49a1.5,1.5,0,0,1,.337-.917,2.3,2.3,0,0,1,.914-.7,3.075,3.075,0,0,1,1.269-.258,2.506,2.506,0,0,1,1.717.548A1.976,1.976,0,0,1,76.371,8.6v2.918a3.567,3.567,0,0,0,.223,1.389V13Zm-1.8-.826a1.905,1.905,0,0,0,.967-.264,1.6,1.6,0,0,0,.662-.686v-1.3h-.85q-1.992,0-1.992,1.166a.987.987,0,0,0,.34.8A1.306,1.306,0,0,0,73.658,12.174Zm5.59.826H78.164V4h1.084Zm3.205-7.875V6.66h1.184V7.5H82.453V11.43a.878.878,0,0,0,.158.571.666.666,0,0,0,.539.19,2.624,2.624,0,0,0,.516-.07V13a3.143,3.143,0,0,1-.832.117,1.35,1.35,0,0,1-1.1-.439,1.888,1.888,0,0,1-.369-1.248V7.5H80.215V6.66h1.154V5.125Zm3.533,2.3a2.3,2.3,0,0,1,1.875-.885q2.01,0,2.027,2.268V13H88.8V8.8a1.459,1.459,0,0,0-.313-1.014,1.256,1.256,0,0,0-.958-.328,1.564,1.564,0,0,0-.926.281,1.91,1.91,0,0,0-.621.738V13H84.9V4h1.084Z" transform="translate(35 349)" fill="#5b5b5b"></path></g></svg>